<?xml version="1.0" encoding="utf-8"?>
<!-- Generator: Adobe Illustrator 22.0.0, SVG Export Plug-In . SVG Version: 6.00 Build 0)  -->
<svg version="1.1" id="Calque_1" xmlns="http://www.w3.org/2000/svg" xmlns:xlink="http://www.w3.org/1999/xlink" x="0px" y="0px"
	 viewBox="0 0 165 250" style="enable-background:new 0 0 165 250;" xml:space="preserve">
<style type="text/css">
	.st0{fill:#FFFFFF;}
</style>
<path class="st0" d="M126.8,184.2c-2.4,0-4.7-0.1-7.1-0.4v4.9h7.1V184.2z M92.1,194.3c0,0,0-1.4,0.9-2.8h-5.2
	c0.9,1.4,0.9,2.8,0.9,2.8h0v7.5h0c0,0,0,1.4-0.9,2.8h5.2c-0.9-1.4-0.9-2.8-0.9-2.8h0L92.1,194.3L92.1,194.3z M123.7,196.6
	c-0.9-0.3-1.5-0.6-1.9-0.8c-0.4-0.3-0.5-0.5-0.6-0.8c0-0.5,0.4-1.1,1.6-1.1c0.1,0,0.2,0,0.3,0c1.4,0.3,2.5,1.6,2.5,1.6l0.8-4.4
	l-1.3,0.4l-0.2,0.1c-0.6-0.3-1.3-0.5-2.3-0.5c-1.6,0-2.8,0.4-3.7,1.2c-0.8,0.7-1.3,1.8-1.2,3c0.1,2,1.8,3.3,4,4
	c1.6,0.6,2.1,1,2.2,1.7c0,0.7-0.5,1.2-1.8,1.2c-0.2,0-0.5,0-0.7,0l0,0c-1.6-0.1-2.9-1.7-2.9-1.7l-0.8,4.4l1.3-0.4l0.5-0.1
	c0.7,0.4,1.7,0.7,2.7,0.7c1.8,0,3.4-0.5,4.2-1.3c0.9-0.8,1.2-1.9,1.1-3C127.7,198.8,126.1,197.5,123.7,196.6z M115.9,188.7h1.7v-5.1
	c-0.7-0.1-1.4-0.2-1.7-0.3V188.7z M134.9,123.2c0-0.9-0.7-1.6-1.6-1.6c-0.9,0-1.6,0.7-1.6,1.6c0,0.9,0.7,1.6,1.6,1.6
	C134.2,124.8,134.9,124.1,134.9,123.2z M25.7,194.4c-0.3,0.5-0.1,1.2,0.4,1.5c0.5,0.3,1.2,0.1,1.5-0.4c0.3-0.5,0.1-1.2-0.4-1.5
	C26.7,193.7,26,193.9,25.7,194.4z M102.5,111.8c-0.7,1.1-1.2,1.9-1.2,1.9l1.2,1.8V111.8z M19.1,170.9c0,0.9,0,1.8,0,2.7
	c45.5-29.7,90.9,29.7,136.4,0c-1-0.2-2-0.5-3.1-0.9C107.9,198,63.5,141.8,19.1,170.9z M104.9,194.3c0,0,0-1.4,0.9-2.8h-5.1
	c0.9,1.4,0.9,2.8,0.9,2.8v3.5l-3.1-5.6c0,0-0.3-0.7-1.1-0.7l0,0h-3.5c0.9,1.4,0.9,2.8,0.9,2.8v7.5c0,0,0,1.4-0.9,2.8h5.1
	c-0.9-1.4-0.9-2.8-0.9-2.8h0v-3.5l3.5,6.3h0.6c0,0,0,0,0,0h3.6c-0.9-1.4-0.9-2.8-0.9-2.8h0L104.9,194.3L104.9,194.3z M113.8,183
	c-0.7-0.1-1.4-0.3-1.7-0.4v6.1h1.7V183z M105.9,121.3v-14.8c-0.3,0.9-1.1,1.9-1.7,2.8v8.7L105.9,121.3z M94.7,178.1
	c-0.7-0.2-1.4-0.5-1.7-0.7v11.4h1.7V178.1z M89.1,176.3v12.5h1.5v-11.8C90,176.7,89.3,176.5,89.1,176.3z M98.7,179.2
	c-0.7-0.2-1.4-0.4-1.7-0.7v10.2h1.7V179.2z M108.5,181.8v6.9h1.7v-6.4C109.5,182.2,108.8,182,108.5,181.8z M100.8,179.8v8.9h1.7
	v-8.3C101.8,180.2,101.1,180,100.8,179.8z M117.2,191.4c-0.8,0-1.6,0-2.5,0v0c-1.4,0-1.8,0-2.5,0c0,0,0,0,0,0H107
	c0.9,1.4,0.9,2.8,0.9,2.8v7.5c0,0,0,1.4-0.9,2.8h3.6v0c2,0,0.8,0,2.8,0c0,0,0,0,0,0c1.3,0,2.5,0,3.8,0c0,0-1.6-1.1-1.4-2.8
	c0.1-0.3,0.1-0.5,0.2-0.8c-1.3,0.8-2.8,0.9-2.8,0.9c-0.6,0-1.2,0-1.8,0c0,0,0-0.1,0-0.1h0v-2.5c0.5,0,1,0,1.4,0c0,0,1.2,0.1,2.3,0.7
	v-4c-1,0.7-2.3,0.7-2.3,0.7c-0.5,0-1,0-1.4,0v-2.5h0c0,0,0,0,0,0c0.6,0,1.2,0,1.8,0c0,0,1.5,0.1,2.8,0.8c-0.1-0.3-0.1-0.5-0.2-0.8
	C115.6,192.6,117.2,191.4,117.2,191.4z M104.6,188.7h1.7v-7.3c-0.7-0.2-1.4-0.4-1.7-0.6V188.7z M130.7,115.1
	c-0.4,0.1-0.9,0.3-1.3,0.5v2.5c0.9-0.7,1.9-1.1,3.1-1.2h1.5c1.2,0.1,2.3,0.6,3.2,1.3l1.1,1.1c0.7,0.9,1.2,2,1.3,3.2v1.5
	c-0.1,1.2-0.6,2.3-1.3,3.2l-1.1,1.1c-0.9,0.7-2,1.2-3.2,1.3h-1.5c-1.1-0.1-2.2-0.6-3.1-1.2v2.5c0.4,0.2,0.8,0.4,1.3,0.5l0.6,4.2h3.9
	l0.6-4.2c0.5-0.1,0.9-0.3,1.3-0.5l3.4,2.6l2.8-2.8l-2.6-3.4c0.2-0.4,0.4-0.8,0.5-1.3l4.2-0.6v-3.9l-4.2-0.6
	c-0.1-0.5-0.3-0.9-0.5-1.3l2.6-3.4l-2.8-2.8l-3.4,2.6c-0.4-0.2-0.8-0.4-1.3-0.5l-0.6-4.2h-3.9L130.7,115.1z M134.5,191.8
	c-0.3,0.2-0.4,0.6-0.3,0.9c0.2,0.3,0.6,0.4,0.9,0.3c0.3-0.2,0.4-0.6,0.3-0.9C135.2,191.7,134.8,191.6,134.5,191.8z M135.2,196.4
	c-0.3-0.2-0.8-0.1-0.9,0.3c-0.2,0.3-0.1,0.8,0.3,0.9c0.3,0.2,0.8,0.1,0.9-0.3C135.6,197,135.5,196.6,135.2,196.4z M109.8,127.2
	v-25.7c-0.3,1.1-1,2.2-1.7,3V124L109.8,127.2z M136.1,194.7c0-0.4-0.3-0.7-0.7-0.7c-0.4,0-0.7,0.3-0.7,0.7c0,0.4,0.3,0.7,0.7,0.7
	C135.8,195.4,136.1,195.1,136.1,194.7z M99.2,154.2c0.5,0.1,1-0.2,1-0.7v-1.6c0-0.6-0.4-1.1-1-1.3c-0.3-0.1-1.6-0.5-1.9-0.6v3.6
	C97.7,153.7,98.9,154.1,99.2,154.2C99.2,154.2,99.2,154.2,99.2,154.2z M63.1,152.8C63.1,152.8,63.1,152.8,63.1,152.8
	C63.1,152.8,63.1,152.8,63.1,152.8C63.1,152.8,63.1,152.8,63.1,152.8z M57.7,142.3c-0.1,0-0.1,0-0.2,0c-0.1,0-0.1,0-0.2,0
	c-0.2,0.9-0.4,1.7-0.5,2.5c-0.1,0.5-0.2,1-0.2,1.5c0.3,0.1,0.6,0.2,0.9,0.2c0.3,0,0.6,0.1,0.9,0.1c-0.1-0.6-0.2-1.2-0.3-1.8
	C58,144,57.8,143.1,57.7,142.3z M130.2,199.3c0,0.4,0.3,0.7,0.7,0.7c0.4,0,0.7-0.3,0.7-0.7c0-0.4-0.3-0.7-0.7-0.7
	C130.5,198.6,130.2,198.9,130.2,199.3z M132.8,198c-0.3,0.2-0.4,0.6-0.3,0.9c0.2,0.3,0.6,0.4,0.9,0.3c0.3-0.2,0.4-0.6,0.3-0.9
	C133.6,198,133.1,197.9,132.8,198z M133.7,191.1c0.2-0.3,0.1-0.8-0.3-0.9c-0.3-0.2-0.8-0.1-0.9,0.3c-0.2,0.3-0.1,0.8,0.3,0.9
	C133.1,191.5,133.6,191.4,133.7,191.1z M140.5,193.5l-2.3-0.9c-0.4-0.2-0.5-0.4-0.6-0.5c-0.1-0.2-0.1-0.3-0.2-0.5
	c0,0-0.1-0.4,0.1-0.9l1-2.1c0.1-0.2,0-0.4-0.1-0.5l-1-1c-0.1-0.1-0.4-0.2-0.5-0.1l-2.2,1c-0.4,0.1-0.6,0.1-0.7,0.1
	c-0.2-0.1-0.3-0.1-0.5-0.2c-0.1,0-0.3-0.2-0.6-0.8l-0.8-2.1c-0.1-0.2-0.3-0.3-0.4-0.3h-1.4c-0.2,0-0.4,0.1-0.4,0.3l-0.3,0.7v3.3
	c0.5-0.1,0.9-0.2,1.4-0.2c3.2,0,5.7,2.6,5.8,5.8c0,3.2-2.6,5.7-5.8,5.8c-0.5,0-1-0.1-1.4-0.2v3.3l0.3,0.7c0.1,0.2,0.3,0.3,0.4,0.3
	h1.4c0.2,0,0.4-0.1,0.4-0.3l0.9-2.3c0.2-0.4,0.4-0.5,0.5-0.6c0.2-0.1,0.3-0.1,0.5-0.2c0,0,0.4-0.1,0.9,0.1l2.1,1
	c0.2,0.1,0.4,0,0.5-0.1l1-1c0.1-0.1,0.2-0.4,0.1-0.5l-1.2-2.5c0-0.1-0.1-0.1-0.1-0.1c0.1-0.3,0.3-0.6,0.4-0.8c0,0,0.2-0.3,0.8-0.6
	l2.2-0.8c0.2-0.1,0.3-0.3,0.3-0.4V194C140.8,193.8,140.7,193.6,140.5,193.5z M83.7,105.3c-0.1,0-0.1,0-0.2-0.1c-0.1,0-0.1,0-0.2-0.1
	c-0.2,0.8-0.3,1.6-0.5,2.4c-0.1,0.5-0.2,1-0.2,1.4c0.3,0.2,0.6,0.3,0.9,0.4c0.3,0.1,0.6,0.2,0.9,0.2c-0.1-0.6-0.2-1.2-0.3-1.8
	C84,107,83.9,106.1,83.7,105.3z M129.4,197.8c0.4,0.2,0.9,0.3,1.4,0.3c1.9,0,3.4-1.5,3.4-3.4c0-1.9-1.5-3.4-3.4-3.4
	c-0.5,0-1,0.1-1.4,0.3V197.8z M108.9,98.5c-4.6,3.4-16.7-0.1-16.7-0.2C78.8,94,65.4,89.1,51.9,88.2c0,8.4,0,16.9,0,25.3
	c18.7,1.2,37.4,10.2,56.2,14.6c-3.3-4.7-6.6-9.6-9.9-14.5C98.2,113.9,113.5,95.4,108.9,98.5z M69.3,111.4
	C69.3,111.4,69.3,111.4,69.3,111.4c-2.4-0.6-0.9-0.2-3.3-0.8c0,0,0,0,0,0c-1.4-0.3-2.8-0.6-4.2-0.9c1-1.4,1-3,1-3h0v-8.7l0,0
	c0,0,0-1.6-1-3.4c2,0.4,4.1,0.8,6.1,1.3c-1,1.4-1,3-1,3h0v8.7c0,0,0,0,0,0c0,0,0,0,0,0.1c0.7,0.2,1.4,0.3,2.1,0.5
	c0,0,1.8,0.3,3.3-0.2c-0.1,0.3-0.1,0.6-0.2,0.8c-0.3,1.9,1.6,3.7,1.6,3.7C72.2,112.1,70.7,111.8,69.3,111.4z M89,121.8
	C89,121.8,89,121.8,89,121.8C89,121.8,89,121.8,89,121.8C89,121.8,89,121.8,89,121.8z M89,117.4c-0.7-0.2-1.3-0.4-2-0.7c0,0,0,0,0,0
	c-0.9-0.3-1.9-0.6-2.8-0.9c0.6-1.1,0.6-2.5,0.5-2.9c-0.3-0.2-0.7-0.3-1-0.4c-0.2-0.1-0.3-0.1-0.5-0.2c-0.4-0.1-0.7-0.1-1-0.1
	c0,0.5,0,1.9,0.5,3.2c-0.5-0.1-0.9-0.3-1.4-0.4c0,0,0,0,0,0c-0.9-0.3-2.3-0.7-3.3-1c-0.6-0.2-1.1-0.3-1.7-0.5
	c1.2-1.1,1.6-2.8,1.6-2.8c0.3-1.3,0.5-2.6,0.8-3.9c0-0.1,0.1-0.3,0.1-0.4c0.2-1.2,0.5-2.4,0.7-3.6c0-0.3,0-0.6,0-0.9
	c0-0.9-1.8,0.9-2.1,0.7c-0.3-0.1-1.5-4.5-1.5-4.5c1.7,0.5,3.9,1.2,5.6,1.8c0.3,0.1,0.5,0.2,0.8,0.3c0,0,0,0,0,0
	c0.7,0.2,1.4,0.4,2,0.7c0,0,0,0,0,0c1.1,0.4,2.2,0.7,3.4,1.1c-0.6,1.3-0.4,3.2-0.4,3.2c0.3,1.5,0.5,2.9,0.8,4.4
	c0,0.2,0.1,0.3,0.1,0.5c0.3,1.5,0.5,2.9,0.8,4.4c0,0,0.4,1.8,1.6,3.7C90.1,117.8,89.6,117.6,89,117.4z M111.9,92.7
	c-0.9-0.8-1.6-0.5-3,0.5c-4.6,3.4-16.7-0.1-16.7-0.2c-5.1-1.7-10.3-3.4-15.4-4.9c-1-0.2-2.3-0.5-3.9-1c-10.4-2.9-18.6-3.4-21-3.5
	v2.2l1,0c3.6,0.3,7.3,0.9,10.9,1.6c0.1,0.1,0.3,0.1,0.4,0.1c0,0,0,0,0,0c9.3,2,18.6,5.3,27.9,8.3c0,0.1,12.1,3.6,16.7,0.2
	c1-0.7,1.8-1.3,2.4-1.8C112.8,93.3,111.9,92.7,111.9,92.7z M155.4,130.6c-45.5,29.7-90.9-29.7-136.4,0c0,0.9,0,1.8,0,2.7
	c44.3-29,88.6,26.7,132.9,2.1C153.1,133.9,154.3,132.2,155.4,130.6z M19.1,135.8c0,10.9,0,21.9,0,32.8
	c43.8-28.7,87.6,25.6,131.5,2.9c-5.5-3.4-11-8-16.4-13.5c5.5-5.4,11-11.8,16.4-19.3C106.7,161.3,62.9,107.1,19.1,135.8z M36.8,157
	c-6.5,1.4-11-1.7-11-8.5c0-6.7,4.5-14.5,11-15.9c3-0.6,5.6,0.3,7.5,2.1c2.4,1.8,4.6,2.4,4.6,2.4c-1.6,1.8-4.7,1.6-7.1,1.2
	c-0.7,0.4-1.5,0.8-2.2,1.3c0-0.2-0.1-0.3-0.1-0.4c-0.6-1.5-1.4-2.4-3.2-2c-1,0.2-2.2,1.6-2.8,3.4c-0.5,1.5-0.5,8.8-0.1,10
	c0.6,1.5,1.2,2.3,3.2,1.9c2.5-0.5,3.2-1.6,3.2-3.3c0-0.5-0.1-1.5-0.1-2.7c-0.7,0.1-2.6,2.9-2.9,3c-0.4,0-2.3-5.7-2.3-5.6
	c2.6-0.7,6-1.3,8.6-1.5c0.4,0,0.8-0.1,1.2-0.1c0,0,0,0,0,0c1-0.1,2.1-0.1,3.1-0.1c0,0,0,0,0,0c1.7,0,0.3,0,2,0
	c-1.1,1.5-1.6,3.2-1.9,4.2C46.6,151.8,42.4,155.8,36.8,157z M44.5,157.1c0.9-0.7,1-0.8,1.8-2.1c27.2-0.7,54.4,17.7,81.6,17.1
	l2.6,1.9C101.9,175.5,73.2,155,44.5,157.1z M61.5,140.3c0.3,1.4,0.5,2.9,0.8,4.3c0,0.2,0.1,0.3,0.1,0.5c0.3,1.5,0.5,2.9,0.8,4.4
	c0,0,0.4,1.8,1.7,3.6c-0.6-0.1-1.2-0.2-1.7-0.4c0,0,0,0,0,0c0,0,0,0,0,0c-0.7-0.2-1.4-0.3-2-0.4c0,0,0,0,0,0
	c-0.9-0.2-1.9-0.3-2.8-0.5c0.6-1.2,0.6-2.7,0.5-3.1c-0.3-0.1-0.7-0.2-1-0.3c-0.2,0-0.4-0.1-0.5-0.1c-0.4,0-0.7,0-1,0.1
	c0,0.5,0,1.9,0.5,3.2c-0.5-0.1-0.9-0.1-1.4-0.2c0,0,0,0,0,0c-1-0.1-2.4-0.2-3.3-0.3c0,0,0,0,0,0c-0.6,0-1.2-0.1-1.7-0.1
	c1.2-1.5,1.7-3.2,1.7-3.2c0.3-1.4,0.5-2.8,0.8-4.1c0-0.2,0.1-0.3,0.1-0.5c0.2-1.3,0.5-2.5,0.7-3.8v-0.9c0-0.9-1.9,1.3-2.1,1.3
	c-0.3-0.1-1.6-4.2-1.6-4.2c1.8,0,4,0.2,5.7,0.4c0.3,0,0.5,0.1,0.8,0.1c0,0,0,0,0,0c0.7,0.1,1.4,0.2,2.1,0.3c0,0,0,0,0,0
	c1.1,0.2,2.3,0.4,3.4,0.6C61.3,138.4,61.5,140.3,61.5,140.3z M66.8,141.4c0,0,0-1.7-1-3.5c2.1,0.5,4.1,1,6.2,1.6c-1,1.3-1,3-1,3
	c0,0,0,0,0,0c0,3,0,5.9,0,8.9c0,0,0,0,0,0c0,0,0,0,0,0.1c0.7,0.2,1.4,0.4,2.2,0.6c0,0,1.8,0.4,3.3-0.1c-0.1,0.3-0.2,0.6-0.2,0.9
	c-0.3,1.9,1.6,3.8,1.6,3.8c-1.5-0.4-3-0.9-4.5-1.3c0,0,0,0,0,0c-2.4-0.7-0.9-0.3-3.3-0.9c0,0,0,0,0,0c-1.4-0.4-2.8-0.7-4.3-1.1
	c1-1.4,1-3.1,1-3.1c0,0,0,0,0,0L66.8,141.4L66.8,141.4z M78.7,141.4c2.1,0.6,4.1,1.3,6.2,2c0,0,0,0,0,0c0.8,0.3,1.3,0.4,2.9,0.9v0
	c1,0.3,2,0.6,2.9,0.9c0,0-1.9,0.8-1.6,2.9c0.1,0.3,0.1,0.7,0.2,1c-1.5-1.4-3.3-2.1-3.3-2.1c-0.7-0.2-1.5-0.5-2.2-0.7c0,0,0,0,0,0
	c0,0,0,0,0,0v2.9c0.6,0.2,1.1,0.4,1.7,0.5c0,0,1.5,0.4,2.7,0v4.7c-1.2-1.1-2.7-1.7-2.7-1.7c-0.6-0.2-1.1-0.4-1.7-0.5v3c0,0,0,0,0,0
	c0,0,0,0,0,0.1c0.7,0.2,1.4,0.5,2.2,0.7c0,0,1.8,0.5,3.3,0c-0.1,0.3-0.2,0.6-0.2,0.8c-0.3,1.9,1.6,3.9,1.6,3.9
	c-1.5-0.5-3-0.9-4.5-1.4c0,0,0,0,0,0c-2.4-0.8-0.9-0.3-3.3-1.1v0c-1.4-0.5-2.8-0.9-4.3-1.4c1-1.3,1-3,1-3V145
	C79.8,145,79.8,143.4,78.7,141.4z M93.1,149.3c-0.1-0.6-0.3-1.9-1-3.3c1,0.3,1.9,0.6,2.9,0.9c0.8,0.2,1.5,0.4,2.4,0.7c0,0,0,0,0,0
	c0.5,0.1,1.8,0.5,2.3,0.7c1.7,0.5,4.8,2.7,4.8,4.3v2.9c0,0.8-1.9,1-2.4,1.4c0.5,0.7,0.9,1.1,1.2,1.3c0.4,0.2,0.3,0.4,0.3,0.6
	c0,1.9,0.8,5,1.8,6.6c-2-0.5-3.9-1-5.9-1.6c0.3-0.5,0.4-1,0.5-1.5c0.1-1.9-1.5-4.9-1.5-4.9c0,0-0.2-0.5-0.5-0.6c0,0-0.1,0-0.1,0
	c-0.4-0.1-0.4,0.2-0.4,0.2c0,1,0,2,0,2.9c0,0,0.1,1.8,1,3.6c-2.2-0.7-4.1-1.2-6.3-1.9c0.9-1.2,1-3,1-3c0-3,0-5.9,0-8.9
	C93.1,149.6,93.1,149.5,93.1,149.3z M107.3,153.7C107.3,153.7,107.3,153.7,107.3,153.7c0-0.4-0.2-2-1-3.5l0,0c0,0,0,0,0,0
	c2.1,0.5,4.1,1,6.2,1.4c0,0,0,0,0,0c0,0,0,0,0,0c-0.9,1.3-1,3.1-1,3.1v8.9c0,0,0.1,1.4,0.7,2.8c0.1,0.2,0.2,0.4,0.3,0.6c0,0,0,0,0,0
	c0,0,0,0,0,0.1c-2.1-0.4-4.2-0.9-6.2-1.4c0,0,0,0,0,0c0,0,0,0,0,0c0.1-0.1,0.1-0.2,0.2-0.3c0.6-1.1,0.8-2.3,0.8-2.7
	c0-0.1,0-0.1,0-0.1c0,0,0,0,0,0L107.3,153.7L107.3,153.7z M115,155.3c0,0,0-1.7-1-3.5c2.1,0.4,4.1,0.7,6.2,0.9c0,0,0,0,0,0
	c0.8,0.1,1.3,0.1,2.9,0.2v0c1,0,2,0.1,2.9,0.1c0,0-1.9,1.4-1.6,3.4c0.1,0.3,0.1,0.6,0.2,0.9c-1.5-1-3.3-1.2-3.3-1.2
	c-0.7-0.1-1.5-0.1-2.2-0.2c0,0,0,0,0,0h0v2.9c0.6,0.1,1.1,0.1,1.7,0.2c0,0,1.5,0,2.7-0.7v4.7c-1.2-0.8-2.7-1-2.7-1
	c-0.6,0-1.1-0.1-1.7-0.2v3c0,0,0,0,0,0c0,0,0,0,0,0.1c0.7,0.1,1.4,0.1,2.2,0.2c0,0,1.8,0,3.3-0.9c-0.1,0.3-0.1,0.6-0.2,0.9
	c-0.3,2,1.6,3.4,1.6,3.4c-1.5,0-3,0-4.5-0.1c0,0,0,0,0,0c-2.4-0.2-0.9-0.1-3.3-0.3c0,0,0,0,0,0c-1.4-0.2-2.8-0.4-4.3-0.6
	c1-1.5,1-3.1,1-3.1h0L115,155.3C115,155.3,115,155.3,115,155.3z M48.1,132.4c-1-0.6-2.1-1.4-2.9-1.9c0.3,0,0.7,0,1.2,0
	c27.2-0.7,54.4,17.7,81.6,17.1l2.6,1.9C103,150.9,75.6,132.1,48.1,132.4z M131.6,190.1c0-0.4-0.3-0.7-0.7-0.7
	c-0.4,0-0.7,0.3-0.7,0.7c0,0.4,0.3,0.7,0.7,0.7C131.2,190.8,131.6,190.5,131.6,190.1z M113.8,132.8V94.1c-0.1,1.4-0.8,3.1-1.7,4.8
	v30.6L113.8,132.8z M51.9,118.7c19.9,1.3,39.9,11.4,59.8,15.4c-0.8-1.1-1.7-2.2-2.5-3.3c-19.1-4.3-38.2-13.7-57.3-14.9V118.7z
	 M32,77.5c0,0.6,0.5,1,0.9,1c0.4,0,1.5,0,1.5,0l0.9-0.2v43.2l7.1-1.5V75.2l2.1,0.8v43.5l-0.4,0.2l2.2-0.2V76.7l2.1,0.8v41.9l1.7-0.1
	V78.2l1.9,0.8v2.7c0.5,0,1.1,0.1,1.7,0.1v-2.2l1.7,0.7V82c0.7,0.1,1.4,0.2,2.2,0.3v-1.2l1.7,0.7v0.8c0.7,0.1,1.4,0.2,2.2,0.4v-0.3
	l1.5,0.6c3.8,0.7,7.4,1.5,10.1,2.2l2.1-1.3c0,0,0,0,0,0l5.5-3.4c0.1,0.1,0.2,0.1,0.3,0.1c0,0,0.1,0,0.1,0l7.7,4.8
	c0,0.1,0,0.3,0.1,0.4c0.1,0.2,0.2,0.4,0.4,0.5v3.8c0.5,0.1,1.1,0.3,1.5,0.5v-4.3l1.9-0.7v5.4c0.7,0.2,1.4,0.3,1.7,0.5V85l2-0.8V92
	c0.8,0.2,1.5,0.4,1.7,0.6v-8.9l1.3-0.5c0,0,0.1,0,0.1,0l1.1-0.4v10c0.7,0.1,1.4,0.1,1.7,0V81.9l2.1-0.8v11.3
	c0.7-0.1,1.5-0.3,1.7-0.6V80.4l2.2-0.9v11.6c0.8-0.4,1.5-0.8,1.7-1.2V78.9l2.3-0.9v11.1c0.9-0.4,1.6-0.2,1.7,0.3V77.3l2.2-0.9v57.9
	l1.7,0.4v-59l2-0.8v60l7.1,0.6V78.3l0.9,0.2c0,0,1.1,0,1.5,0c0.4,0,0.9-0.4,0.9-1s0.8-0.7,0.8-0.7h1.4V74h0.1L81.1,42L29.7,74v2.8
	h1.4C31.1,76.8,32,76.9,32,77.5z M38.8,117.8c-0.4,0-0.8-0.4-0.8-0.8c0-0.4,0.4-0.8,0.8-0.8c0.4,0,0.8,0.4,0.8,0.8
	C39.6,117.4,39.3,117.8,38.8,117.8z M38.8,111.5c-0.4,0-0.8-0.4-0.8-0.8c0-0.4,0.4-0.8,0.8-0.8c0.4,0,0.8,0.4,0.8,0.8
	C39.6,111.1,39.3,111.5,38.8,111.5z M38.8,105.2c-0.4,0-0.8-0.4-0.8-0.8c0-0.4,0.4-0.8,0.8-0.8c0.4,0,0.8,0.4,0.8,0.8
	C39.6,104.8,39.3,105.2,38.8,105.2z M38.8,98.9c-0.4,0-0.8-0.4-0.8-0.8s0.4-0.8,0.8-0.8c0.4,0,0.8,0.4,0.8,0.8S39.3,98.9,38.8,98.9z
	 M38.8,92.6c-0.4,0-0.8-0.4-0.8-0.8c0-0.4,0.4-0.8,0.8-0.8c0.4,0,0.8,0.4,0.8,0.8C39.6,92.3,39.3,92.6,38.8,92.6z M38.8,86.4
	c-0.4,0-0.8-0.4-0.8-0.8s0.4-0.8,0.8-0.8c0.4,0,0.8,0.4,0.8,0.8S39.3,86.4,38.8,86.4z M38.8,80.1c-0.4,0-0.8-0.4-0.8-0.8
	s0.4-0.8,0.8-0.8c0.4,0,0.8,0.4,0.8,0.8S39.3,80.1,38.8,80.1z M50.6,76.1l-7.2-2.8l0.5-0.3h11.7L50.6,76.1z M70.8,66.5l1,2.3l-3.1-1
	L70.8,66.5z M70,61.7l1.3,1.5l-0.5,0.3L70,61.7z M75,75.8l0.6,1.4h-2.9L75,75.8z M68.6,76.8l-4-3.8h9.2l0.2,0.4L68.6,76.8z
	 M74.5,71.6L74.3,71l1.9,0.6H74.5z M73.5,69.3l-1.6-3.5l1-0.6l4.6,5.5L73.5,69.3z M72.6,70.4l0.5,1.2h-10l-0.2-0.2l4.4-2.7
	L72.6,70.4z M65.6,66.7L58,64.2l9.1-5.7l2.6,5.6L65.6,66.7z M64.2,67.6l-3.2,2l-4.6-4.4l0.2-0.1L64.2,67.6z M59.8,70.3l-2,1.3H46.2
	l9-5.6L59.8,70.3z M53.4,77.2l6.8-4.2h2.5l4.4,4.2H53.4z M62.3,80.7l-5.4-2.1h8.7L62.3,80.7z M70.8,84l-5.5-2.2v-0.1l4-2.5l3.6,3.4
	L70.8,84z M74.1,82l-3.6-3.4h5.8l0.7,1.6L74.1,82z M78.1,79.5l-0.4-0.9h1.8L78.1,79.5z M80.2,77.2h-3.1l-1-2.1l3.3-2.1h0.1l0.7,0.8
	V77.2z M80.2,69.5L79,70.3l-4.9-5.8l6.2-3.8V69.5z M80.2,57.6l-7.8,4.9l-4-4.7l11.8-7.3V57.6z M83.4,79.5l-1.5-0.9h1.9L83.4,79.5z
	 M81.5,77.2v-3.6L82,73h0.3l3.1,1.9l-1,2.2H81.5z M100.7,69.6l-3-1.8l7.4-2.3L100.7,69.6z M106.6,65.8l9.4,5.8h-12l-2.1-1.3
	L106.6,65.8z M87.3,71L87,71.6h-1.7L87.3,71z M84.1,70.6l4.6-5.3l0.9,0.6L88,69.4L84.1,70.6z M86.6,75.7l2.4,1.5h-3.1L86.6,75.7z
	 M87.7,73.3l0.1-0.3H97l-3.9,3.7L87.7,73.3z M88.5,71.6l0.5-1.2l5.4-1.7l4.3,2.7l-0.1,0.1H88.5z M90.8,66.5l2.1,1.3l-3.1,1
	L90.8,66.5z M90.5,63.2l0.8-0.9l-0.5,1.1L90.5,63.2z M96.2,66.8l-4.3-2.7l2.5-5.4l0.3-0.3l9.5,5.9L96.2,66.8z M93.3,58l-3.9,4.5
	l-7.8-4.9v-7.5l11.9,7.4L93.3,58z M87.6,64.5l-4.9,5.7l-1.1-0.7v-8.8L87.6,64.5z M84.5,80.2l0.8-1.6h5.9l-3.7,3.5L84.5,80.2z
	 M96.2,81.9l-5.5,2.2l-2.1-1.3l3.8-3.6l3.9,2.4V81.9z M99.4,80.7l-3.3-2.1h8.6L99.4,80.7z M94.6,77.2l4.4-4.2h2.2l6.7,4.2H94.6z
	 M111.2,76.1l-4.9-3h12l0.3,0.2L111.2,76.1z M123.4,130.2c-0.4,0-0.8-0.4-0.8-0.8c0-0.4,0.4-0.8,0.8-0.8c0.4,0,0.8,0.4,0.8,0.8
	C124.2,129.8,123.8,130.2,123.4,130.2z M123.4,123.9c-0.4,0-0.8-0.4-0.8-0.8c0-0.4,0.4-0.8,0.8-0.8c0.4,0,0.8,0.4,0.8,0.8
	C124.2,123.5,123.8,123.9,123.4,123.9z M124.2,116.9c0,0.4-0.4,0.8-0.8,0.8c-0.4,0-0.8-0.4-0.8-0.8c0,0,0,0,0-0.1c0,0,0,0,0-0.1
	c0-0.4,0.4-0.8,0.8-0.8c0.4,0,0.8,0.4,0.8,0.8C124.2,116.8,124.2,116.9,124.2,116.9C124.2,116.9,124.2,116.9,124.2,116.9z
	 M123.4,111.5c-0.4,0-0.8-0.4-0.8-0.8c0-0.4,0.4-0.8,0.8-0.8c0.4,0,0.8,0.4,0.8,0.8C124.2,111.1,123.8,111.5,123.4,111.5z
	 M123.4,105.2c-0.4,0-0.8-0.4-0.8-0.8c0-0.4,0.4-0.8,0.8-0.8c0.4,0,0.8,0.4,0.8,0.8C124.2,104.8,123.8,105.2,123.4,105.2z
	 M123.4,98.9c-0.4,0-0.8-0.4-0.8-0.8s0.4-0.8,0.8-0.8c0.4,0,0.8,0.4,0.8,0.8S123.8,98.9,123.4,98.9z M123.4,92.6
	c-0.4,0-0.8-0.4-0.8-0.8c0-0.4,0.4-0.8,0.8-0.8c0.4,0,0.8,0.4,0.8,0.8C124.2,92.3,123.8,92.6,123.4,92.6z M123.4,86.4
	c-0.4,0-0.8-0.4-0.8-0.8s0.4-0.8,0.8-0.8c0.4,0,0.8,0.4,0.8,0.8S123.8,86.4,123.4,86.4z M123.4,80.1c-0.4,0-0.8-0.4-0.8-0.8
	s0.4-0.8,0.8-0.8c0.4,0,0.8,0.4,0.8,0.8S123.8,80.1,123.4,80.1z M81.1,44.9l45.8,28.5H124L81.1,46.7L38.1,73.4h-2.8L81.1,44.9z
	 M46.1,167.1c-0.6,0-1.3,0.1-1.9,0.1v21.5h1.9V167.1z M23.4,185.8c0.5,0.3,1.2,0.1,1.5-0.4c0.3-0.5,0.1-1.2-0.4-1.5
	c-0.5-0.3-1.2-0.1-1.5,0.4C22.7,184.8,22.9,185.5,23.4,185.8z M42.4,167.3c-2.4,0.2-4.7,0.6-7.1,1.2v20.2h7.1V167.3z M38.8,184.7
	c-0.4,0-0.8-0.4-0.8-0.8c0-0.4,0.4-0.8,0.8-0.8c0.4,0,0.8,0.4,0.8,0.8C39.6,184.4,39.3,184.7,38.8,184.7z M38.8,178.5
	c-0.4,0-0.8-0.4-0.8-0.8c0-0.4,0.4-0.8,0.8-0.8c0.4,0,0.8,0.4,0.8,0.8C39.6,178.1,39.3,178.5,38.8,178.5z M38.8,172.2
	c-0.4,0-0.8-0.4-0.8-0.8c0-0.4,0.4-0.8,0.8-0.8c0.4,0,0.8,0.4,0.8,0.8C39.6,171.8,39.3,172.2,38.8,172.2z M23.1,104.5
	c0,2.2,1.8,3.9,3.9,3.9c2.2,0,3.9-1.8,3.9-3.9c0-2.2-1.8-3.9-3.9-3.9C24.9,100.6,23.1,102.3,23.1,104.5z M24.8,188.6
	c0,3,2.5,5.5,5.5,5.5c0.8,0,1.6-0.2,2.3-0.5v-10c-0.7-0.3-1.5-0.5-2.3-0.5C27.3,183,24.8,185.5,24.8,188.6z M15.9,118.7l3.9-1.8
	c1.1-0.5,1.7-0.3,1.8-0.3c0.3,0.1,0.6,0.3,0.9,0.4c0.1,0.1,0.5,0.4,0.9,1.1l1.6,4.3c0.1,0.3,0.5,0.6,0.8,0.6l2.7,0
	c0.3,0,0.7-0.3,0.8-0.6l1.5-4c0.4-1,1-1.4,1.1-1.4c0.3-0.1,0.6-0.2,0.9-0.4v-3c-1.6,1-3.5,1.6-5.6,1.6c-2.2,0-4.2-0.6-5.9-1.7l2-1.5
	c1.2,0.6,2.5,0.9,3.9,0.9c1.4,0,2.7-0.3,3.9-0.9l1.7,1.3v-5.7c-0.2,0.3-0.4,0.6-0.6,0.9l-1.1,1.1c-1.1,0.9-2.4,1.4-3.9,1.4
	c-1.5,0-2.8-0.5-3.9-1.4l-1.1-1.1c-0.9-1.1-1.4-2.4-1.4-3.9c0-3.3,2.4-5.9,5.6-6.3h1.5c2.1,0.2,3.8,1.5,4.8,3.3v-3.3
	c-0.9-0.8-1.9-1.3-3-1.7L29.3,94c1.2,0.3,2.3,0.7,3.4,1.3v-3c0,0,0,0,0,0c-0.3-0.1-0.6-0.3-0.9-0.4c-0.1-0.1-0.5-0.4-0.9-1.1
	l-1.6-4.3c-0.1-0.3-0.5-0.6-0.8-0.6h-2.7c-0.3,0-0.7,0.3-0.8,0.6l-1.5,4c-0.4,1-1,1.4-1.1,1.4c-0.3,0.1-0.6,0.2-0.9,0.4
	c-0.1,0-0.6,0.1-1.4-0.1l-4.2-1.9c-0.3-0.1-0.8-0.1-1,0.2L13,92.4c-0.2,0.2-0.3,0.7-0.2,1l1.8,3.9c0.5,1.1,0.3,1.7,0.3,1.8
	c-0.1,0.3-0.3,0.6-0.4,0.9c-0.1,0.1-0.4,0.5-1.1,0.9l-4.3,1.6c-0.3,0.1-0.6,0.5-0.6,0.8l0,2.7c0,0.3,0.3,0.7,0.6,0.8l4,1.5
	c1,0.4,1.4,1,1.4,1c0.1,0.3,0.2,0.6,0.4,0.9c0,0.1,0.1,0.6-0.1,1.4l-1.9,4.2c-0.1,0.3-0.1,0.8,0.2,1l1.9,1.9
	C15.2,118.8,15.6,118.9,15.9,118.7z M24.9,94l-0.4,2.5c-3.4,1.1-5.9,4.3-5.9,8c0,1.4,0.3,2.7,0.9,3.9l-1.5,2
	c-1.1-1.7-1.7-3.7-1.7-5.9C16.3,99.3,20,95,24.9,94z M21.8,188.6c0,0.6,0.5,1.1,1.1,1.1c0.6,0,1.1-0.5,1.1-1.1
	c0-0.6-0.5-1.1-1.1-1.1C22.3,187.4,21.8,187.9,21.8,188.6z M24.5,193.2c0.5-0.3,0.7-1,0.4-1.5c-0.3-0.5-1-0.7-1.5-0.4
	c-0.5,0.3-0.7,1-0.4,1.5C23.3,193.3,24,193.5,24.5,193.2z M27.2,183.1c0.5-0.3,0.7-1,0.4-1.5c-0.3-0.5-1-0.7-1.5-0.4
	c-0.5,0.3-0.7,1-0.4,1.5C26,183.2,26.7,183.4,27.2,183.1z M49.6,191.5c-0.6,0-1.2,0-1.7,0c-1.3,0-1.9,0-3.3,0l-2.3,3.4l-2.4-3.4
	c-1,0-1.2,0-2.2,0c-0.9,0-1.9,0-2.8,0c0.8,1.3,0.9,2.8,0.9,2.8c0,2.5,0,5,0,7.4c0,0-0.1,1.6-0.9,2.9c1.7,0,3.8,0,5.4,0
	c-0.8-1.3-0.9-2.9-0.9-2.9v-4.1c0,0,0-0.8,0-0.8l2.9,4l2.8-4v3.5c0,0-0.1,3-0.9,4.3c1.7,0,3.7,0,5.4,0c-0.8-1.3-0.9-2.8-0.9-2.8
	v-7.4C48.7,194.3,48.8,192.7,49.6,191.5z M81,185.7c-0.2,0-0.5,0-0.7,0l0,0c-1.7-0.1-3-1.7-3-1.7l-0.9,4.5l1.3-0.4l0.5-0.2
	c0.8,0.4,1.7,0.8,2.8,0.8c1.9,0,3.5-0.5,4.4-1.3c0.9-0.8,1.3-1.9,1.2-3.1c-0.1-2-1.7-3.3-4.2-4.2c-0.9-0.3-1.5-0.6-1.9-0.8
	c-0.4-0.3-0.5-0.5-0.6-0.9c0-0.6,0.4-1.1,1.7-1.1c0.1,0,0.2,0,0.3,0c1.5,0.3,2.6,1.7,2.6,1.7l0.9-4.5l-1.3,0.4l-0.2,0.1
	c-0.6-0.3-1.4-0.6-2.4-0.6c-1.6,0-2.9,0.4-3.8,1.2c-0.9,0.8-1.3,1.8-1.2,3c0.1,2.1,1.8,3.4,4.1,4.2c1.7,0.6,2.2,1,2.2,1.7
	C82.9,185.2,82.3,185.7,81,185.7z M31.5,172.5h-2.3c-0.3,0-0.6,0.2-0.7,0.5l-1.3,3.5c-0.3,0.9-0.8,1.2-0.9,1.2
	c-0.3,0.1-0.5,0.2-0.8,0.3c-0.1,0-0.6,0.1-1.2-0.1l-3.6-1.7c-0.3-0.1-0.7-0.1-0.9,0.2l-1.6,1.6c-0.2,0.2-0.3,0.6-0.2,0.9l1.6,3.4
	c0.4,0.9,0.2,1.5,0.2,1.5c-0.1,0.3-0.2,0.5-0.3,0.8c-0.1,0.1-0.3,0.5-0.9,0.7l-3.8,1.4c-0.3,0.1-0.5,0.4-0.5,0.7l0,2.3
	c0,0.3,0.2,0.6,0.5,0.7l3.5,1.3c0.9,0.4,1.2,0.8,1.2,0.9c0.2,0.5,0.4,0.9,0.6,1.4c-0.1,0-0.2,0.1-0.2,0.2l-1.9,4
	c-0.1,0.3-0.1,0.7,0.2,0.9l1.6,1.6c0.2,0.2,0.6,0.3,0.9,0.2l3.4-1.6c0.9-0.4,1.5-0.2,1.5-0.2c0.3,0.1,0.5,0.2,0.8,0.3
	c0.1,0.1,0.5,0.3,0.7,0.9l1.4,3.8c0.1,0.3,0.4,0.5,0.7,0.5h2.3c0.3,0,0.6-0.2,0.7-0.5l0.4-1.1v-5.4c-0.7,0.2-1.5,0.3-2.3,0.3
	c-5.1,0-9.3-4.2-9.3-9.3c0-5.1,4.2-9.3,9.3-9.3c0.8,0,1.6,0.1,2.3,0.3v-5.4l-0.4-1.1C32.1,172.7,31.8,172.5,31.5,172.5z M31.5,181.2
	c0-0.6-0.5-1.1-1.1-1.1c-0.6,0-1.1,0.5-1.1,1.1c0,0.6,0.5,1.1,1.1,1.1C31,182.3,31.5,181.8,31.5,181.2z M53.8,174.7h-1.2
	c0,0,0,0,0,0h0c0.7,1.2,0.9,2.5,0.9,2.8c0,0,0,0,0,0v7.7c0,0,0,0,0,0.1c0,0.3-0.2,1.4-0.7,2.5c-0.1,0.1-0.1,0.2-0.2,0.3h0
	c0,0,0,0,0,0c0.9,0,1.9,0,2.8,0c1,0.1,3.5,0.1,3.7,0.1c3.3,0,5.7-2.9,5.7-6.8c0-3.3-1.7-6.1-4.2-6.8c-0.5-0.1-1.4-0.1-1.9-0.1
	C58.2,174.5,54.5,174.7,53.8,174.7C53.8,174.7,53.8,174.7,53.8,174.7z M57.1,183C57.1,183,57.1,183,57.1,183v-5.4c0,0,0-0.3,0.1-0.6
	c0.6-0.1,1.2-0.1,1.5-0.1c0.5,0,1.7,0.6,2,1.5c0.3,0.8,0.3,5,0,5.8c-0.3,1-1.5,1.6-2,1.6c-0.3,0-0.9,0-1.5-0.1
	c0-0.3-0.1-0.5-0.1-0.5V183z M65.6,188.2h3.7v0c2.1,0,0.8,0,2.9,0c0,0,0,0,0,0c1.3,0,2.6,0,3.9,0c0,0-1.7-1.2-1.4-2.9
	c0.1-0.3,0.1-0.5,0.2-0.8c-1.3,0.8-2.9,0.9-2.9,0.9c-0.6,0-1.3,0-1.9,0c0,0,0-0.1,0-0.1v-2.6c0.5,0,1,0,1.5,0c0,0,1.3,0.1,2.3,0.7
	v-4.1c-1.1,0.7-2.3,0.8-2.3,0.8c-0.5,0-1,0-1.5,0v-2.5c0,0,0,0,0,0c0.6,0,1.3,0,1.9,0c0,0,1.6,0.1,2.9,0.9c-0.1-0.3-0.1-0.5-0.2-0.8
	c-0.3-1.7,1.4-2.9,1.4-2.9c-0.8,0-1.7,0-2.5,0v0c-1.4,0-1.8,0-2.5,0c0,0,0,0,0,0h-5.4c0.9,1.4,0.9,2.9,0.9,2.9v7.7
	C66.5,185.3,66.5,186.7,65.6,188.2z M68.4,193.6c0.5,0,0.9,0.6,1.2,1.5c0,0.1,0,0.2,0.1,0.3c0.1,0.5,1.1,1.2,3.4-0.6
	c0.4-0.3,0.8-0.7,1.1-1.1l-2.1-1c-1-1-2.3-1.6-3.7-1.6c-3.2,0-5.8,3.1-5.8,6.9c0,3.8,2.6,6.9,5.8,6.9c3.1,0,5.7-2.9,5.8-6.6
	c-2.4,2.4-4.3,0.9-4.3,0.9c-0.1,1.4-0.2,1.5-0.2,1.5c-0.3,0.9-0.7,1.5-1.2,1.5c-0.5,0-1-0.6-1.3-1.5c-0.2-0.7-0.2-4.9,0-5.6
	C67.5,194.2,67.9,193.6,68.4,193.6z M64.9,169.2c-0.3-0.2-1-0.3-1.7-0.5v3.4h1.7V169.2z M51.3,172.2H53v-4.9c-0.3-0.1-1-0.1-1.7-0.2
	V172.2z M66.8,169.6v2.6h1.7v-2.1C68.2,169.9,67.5,169.7,66.8,169.6z M85.8,194.3c0,0,0-1.4,0.9-2.8h-5.2c0.9,1.4,0.9,2.8,0.9,2.8h0
	v1.6l-1.7,0.8l-1.5,0.2v-2.6h0c0,0,0-1.4,0.9-2.8h-5.2c0.9,1.4,0.9,2.8,0.9,2.8h0v7.5h0c0,0,0,1.4-0.9,2.8H80
	c-0.9-1.4-0.9-2.8-0.9-2.8h0V200c0.8-0.3,1.6-0.7,1.6-0.7s0.9-0.2,1.5-0.3v2.7h0c0,0,0,1.4-0.9,2.8h5.2c-0.9-1.4-0.9-2.8-0.9-2.8h0
	L85.8,194.3L85.8,194.3z M72.2,171.1c-0.3-0.2-1-0.4-1.7-0.6v1.9h1.7V171.1z M55.4,167.5v4.7h1.7v-4.4
	C56.9,167.7,56.1,167.6,55.4,167.5z M60.8,198.3c0-0.1,0-0.3-0.1-0.4c-0.2-1.2-0.4-2.4-0.7-3.5c0,0-0.2-1.6,0.4-2.9
	c-1,0-1.9,0-2.9,0c0,0,0,0,0,0c-0.6,0-1.2,0-1.8,0c0,0,0,0,0,0c-0.2,0-0.5,0-0.7,0c-1.5,0-3.3,0-4.8,0c0,0,1.1,3.4,1.3,3.5
	c0.2,0,1.8-2,1.8-1.2v0.8c-0.2,1.1-0.4,2.2-0.6,3.3c0,0.1,0,0.3-0.1,0.4c-0.2,1.2-0.4,2.3-0.7,3.5c0,0-0.4,1.5-1.4,2.8
	c0.5,0,1,0,1.5,0c0.8,0,2,0,2.8,0c0,0,0,0,0,0c0.4,0,0.8,0,1.2,0c-0.5-1-0.5-2.2-0.5-2.6c0.2-0.1,0.5-0.1,0.9-0.2c0.1,0,0.3,0,0.4,0
	c0.2,0,0.5,0,0.8,0.1c0,0.4,0,1.6-0.5,2.7c0.8,0,1.6,0,2.4,0c0,0,0,0,0,0c0.6,0,1.1,0,1.7,0c0.5,0,1,0,1.5,0c-1-1.3-1.4-2.7-1.4-2.7
	C61.2,200.6,61,199.4,60.8,198.3z M56.6,200.1c-0.3,0-0.6,0-0.8-0.1c0.1-0.4,0.1-0.9,0.2-1.3c0.1-0.7,0.3-1.5,0.4-2.2
	c0.1,0,0.1,0,0.2,0c0.1,0,0.1,0,0.2,0c0.1,0.7,0.3,1.4,0.4,2.1c0.1,0.5,0.2,1,0.2,1.5C57.1,200.1,56.8,200.1,56.6,200.1z M48,167.1
	v21.7h1.7v-21.6C49,167.1,48.3,167.1,48,167.1z M29.2,196c0,0.6,0.5,1.1,1.1,1.1c0.6,0,1.1-0.5,1.1-1.1c0-0.6-0.5-1.1-1.1-1.1
	C29.7,194.8,29.2,195.3,29.2,196z M61,168.4c-0.3-0.1-1-0.3-1.7-0.4v4.2H61V168.4z"/>
</svg>
