<?xml version="1.0" encoding="UTF-8"?>
<svg id="Calque_2" data-name="Calque 2" xmlns="http://www.w3.org/2000/svg" viewBox="0 0 611.74 585.55">
  <defs>
    <style>
      .cls-1 {
        fill: #dfded5;
      }

      .cls-1, .cls-2, .cls-3, .cls-4, .cls-5 {
        stroke-width: 0px;
      }

      .cls-2 {
        fill: #eaeae6;
      }

      .cls-3 {
        fill: #f7fafa;
      }

      .cls-4 {
        fill: #93c0b5;
      }

      .cls-5 {
        fill: #163c3d;
      }
    </style>
  </defs>
  <g id="Calque_1-2" data-name="Calque 1">
    <g>
      <path class="cls-5" d="M190.12,12.88c.26,0,.51-.05.76-.13-.24.91-.24,2-.75,2.71-3.34,4.58-7.74,8.66-9.94,13.71-2.09,4.79-5.21,7.13-9.53,9.11-33.85,15.55-64.13,36.19-88.71,64.38-8.45,9.69-15.47,20.62-23.15,30.98-.54.73-1.14,1.44-1.63,2.2-17.74,27.76-29.2,58.02-35.52,90.26-2.83,14.43-4.69,28.99-4.16,43.75.06,4.99.11,9.99.17,14.98.36,5.87.71,11.75,1.07,17.62.14.76.29,1.52.43,2.28.01.26.03.52.04.78,0,.26.01.53.02.79,1.49,7.97,2.99,15.95,4.48,23.92.1.51.2,1.02.3,1.54,5.63,27.94,18.02,52.88,33.72,76.38.13-1.69-.01-3.27-.46-4.76-4.25-14.3-6.75-28.85-6.2-43.83,1.49-7.94,2.98-15.87,4.47-23.81,1.42-3.53,2.42-7.3,4.34-10.53,4.27-7.2,9.01-14.13,13.55-21.16.97-1.12,1.94-2.23,2.91-3.35.79-.78,1.57-1.57,2.36-2.35.61-.49,1.27-.93,1.83-1.48,15.73-15.24,34.92-21.91,56.45-22.37,14.59-.31,28.58,2.9,42.13,8.24,2.07.81,4.36,1.07,6.54,1.59.24-.47.48-.94.71-1.41-4.53-6.41-9.91-11.9-17.94-14.12-7.26-2-14.62-3.64-21.89-5.63-21.7-5.92-43.07-5.13-63.61,4.22-15.7,7.15-27.96,18.12-34.32,34.8-6.69,17.57-6.64,35.88-6.42,54.23-.13,1.16-.27,2.31-.53,4.55-1.31-2.34-2.28-3.6-2.76-5.03-1.38-4.06-2.55-8.19-3.81-12.3-.04-.25-.09-.51-.13-.76-.53-3.17-1.07-6.35-1.6-9.52-.03-3.71-.07-7.43-.1-11.14.11-.77.19-1.54.32-2.3,1.03-6.1,2.07-12.2,3.11-18.31,0,0-.03.03-.03.03.25-.3.5-.6.74-.9,0-.49.02-.99.03-1.48l.75-.91c.08-.5.15-1.01.23-1.51.55-1.05,1.09-2.09,1.64-3.14.71-1.48,1.32-3,2.14-4.42,6.37-11.03,15.29-19.78,25.81-26.59,12.82-8.31,27.17-12.75,42.49-13.68,17.96-1.08,35.21,1.69,51.52,9.58,1.41.68,3.09.82,4.65,1.21.2-.29.4-.58.6-.87-1.38-2.35-2.54-4.88-4.19-7.03-7.71-10.06-18.35-14.71-30.62-16.44-16.74-2.35-32.09-7.8-42.94-21.63-3.73-4.76-6.66-10.25-9.35-15.7-2.04-4.13.68-7.15,5.26-6.15,2.54.56,5,1.68,7.37,2.8,5.61,2.67,11.04,5.72,16.74,8.16,2.82,1.21,6.08,1.41,9.14,2.06l.39-1.18c-1.06-1.48-2.5-2.82-3.07-4.47-.85-2.45-2.3-5.92-1.26-7.5,1.36-2.08,4.81-2.94,7.5-3.95,1.11-.42,2.65-.05,3.9.29,6.62,1.8,13.29,3.46,19.79,5.64,11.32,3.8,21.17,10.04,29.74,19.68,1.47-4.09,2.68-7.5,3.92-10.9,4.19-11.44,11.11-20.72,22.85-24.88,5.85-2.07,12.37-2.38,18.63-3.09,5.76-.65,11.66-.31,17.36-1.25,5.07-.84,8.15-5.79,7.73-10.98-1.02.17-2.04.27-3.03.51-8.83,2.13-12.66.46-17.69-7.21-2.81-4.29-6.01-8.34-9.04-12.49-.24-.35-.49-.7-.73-1.05-1-1.81-1.99-3.62-2.99-5.42l-2.71-1.3c-.65-.13-1.3-.38-1.94-.36-5.54.15-9.14-3.66-6.98-9.73,2.95-8.31,2.73-15.97-1.78-24.27-5.32-9.8-9.29-20.47-12.68-31.13-3.59-11.26-1.91-22.96,3.29-33.19,7.04-13.86,18.57-23.78,32.77-30.37,2.14-1,4.29-2,6.43-3,2.38-.85,4.76-1.71,7.13-2.56,6.73-.24,13.45-.56,20.18-.69,10.13-.19,19.89,2.18,28.61,6.97,18.03,9.92,35.08,21.3,47.23,38.53,6.34,8.99,12.39,18.19,18.84,27.1,5.06,6.98,11.92,12,19.61,15.73,7.67,3.72,15.65,4.95,23.64.77,5.87-3.07,8.65-9.93,6.9-16.62-1.54-5.89-7.26-10.57-12.96-10.45-3.56.08-6.85,1.34-7.72,5-.85,3.59,2.24,5.1,5.04,6,2.94.94,2.82,2.9,1.32,4.41-1.31,1.33-3.55,2.4-5.38,2.41-4.92.03-8.85-2.54-11.58-6.49-2.5-3.63-2.72-8.12-.68-11.72,3.75-6.62,9.88-10,17.65-10.16,21.75-.42,33.99,22.3,31.86,39.41-1.51,12.21-7.65,21.2-18.87,26.53-2.35.95-4.69,1.89-7.04,2.84-2.08.4-4.16.8-6.23,1.2-13.51.96-25.27-4.39-36.93-10.19-3.09-1.54-4.22-3.81-4.18-7.3.04-3.33-.08-7.01-1.42-9.95-4.11-9-8.82-17.72-13.38-26.51-.48-.93-1.54-1.56-2.33-2.32-3.98-11.76-11.66-20.73-22.3-26.56-20.5-11.24-41.96-11.45-63.5-3.13-8.92,3.44-17.11,8.33-22.39,16.83-1.28,1.72-2.56,3.44-3.83,5.16,1.35.51,1.88.45,2.33.23,17.85-8.7,36.55-9.82,55.84-6.57,18.8,3.16,32.75,14.43,46.34,26.65,9.49,8.53,13.88,20.57,21.76,30.16,2.41,2.93,4.7,6.16,7.71,8.34,9.31,6.75,20.28,9.51,31.36,11.66,2.06.4,4.3-.09,6.46-.17,1.56-.21,3.13-.42,4.69-.63,1.89-.37,3.77-.73,5.66-1.1.83-.22,1.66-.44,2.49-.67,1.02-.3,2.04-.59,3.07-.89,7.69-1.75,15.33-4.62,23.1-5.02,20.69-1.07,37.1,7.35,48.61,24.81,2.08,4.64,4.17,9.29,6.25,13.93.54,3.44,1.09,6.87,1.63,10.31l.08,3.22c-.37,21.76-9.76,40.27-21.43,58.45,8.18,1.65,15.96,3.16,23.77,3.38,4.28.12,8.87-1.4,12.87-3.2,5.31-2.38,9.35-6.46,10.75-12.48,1.55-6.63-2.63-12.77-8.97-13.17-3.2-.2-5.77,1-7.14,3.97-1.26,2.75-.24,5.08,1.76,7.18.73.76,1.1,1.87,1.63,2.83-1.13.53-2.22,1.41-3.39,1.52-4.73.47-9.38-5.11-8.92-10.93.64-8.07,5.45-12.63,13.05-14.57.24.01.49.03.73.04,16.26.74,24.8,12.7,20.09,28.22-1.95,6.42-5.93,11.4-11.31,15.32-.5.29-1,.59-1.51.88-8.65,2.57-17.3,5.15-25.82,7.68,13.03,13.67,22.47,29.89,26.44,49.06.38,6.86,1.11,13.72,1.07,20.58-.08,10.95-2.81,21.46-6.56,31.7-.83,1.86-1.66,3.72-2.49,5.58-.22.44-.44.88-.66,1.32-1.79,3.08-3.47,6.23-5.38,9.24-9.31,14.7-21.56,26.15-37.99,32.36-17.82,6.73-35.75,6.53-53.77-.01-13.4-4.87-22.62-13.94-28.57-26.53-10.72-22.65-.31-46.61,22.63-52.54,11.68-3.02,23.19,1.81,27.61,11.58,3.15,6.97.26,14.28-6.9,17.34.19-2.36.57-4.69.51-7.02-.11-4.5-3.7-8.7-8.26-9.4-7.13-1.1-7.64-.27-10.37,5.31-.52,1.07-.96,2.18-1.39,3.29-3.58,9.31,1.41,19.5,11,22.46,9.3,2.87,19.36-.81,24.99-9.16,7.33-10.85,5.78-25.28-3.83-35.79-12.89-14.09-30.15-18.17-48.1-11.45-2.45.92-5.05,2.09-7.55,2.03-2.82-.08-3.5,1.24-4.42,3.32-3.41,7.72-6.38,15.72-10.64,22.96-12.65,21.49-46.26,39.62-77.16,22.56-4.45-2.83-8.91-5.66-13.36-8.49-.62-.45-1.24-.91-1.86-1.36-.54-.34-1.08-.69-1.63-1.03-1.91-2.59-3.82-5.19-5.8-7.87.3-.15.61-.35.95-.48,4.17-1.56,6.79,1.53,10,3.15,6.07,3.06,12.31,5.76,18.51,8.56.93.42,1.96.58,2.95.88,13.73,4.08,26.5,2.45,39.21-4.6,16.67-9.24,25.4-23.44,28.58-41.53,2.03-11.58,1.15-23.25-.83-34.78-.85-4.94-2.47-9.74-3.76-14.69-3.56,5.52-6.62,10.21-9.59,14.95-.46.73-.63,1.7-.72,2.58-.78,7.09-1.22,14.24-2.32,21.28-2.58,16.51-10.21,30.11-24.09,39.84-11.01,7.72-23.1,10.4-36.22,7.04-3.02-.77-5.78-2.54-8.66-3.85.1-.56.21-1.12.31-1.67,3.73-.46,7.44-1.14,11.19-1.35,9.12-.51,17.75-2.43,25.63-7.33,13.27-8.26,18.76-21.27,22.08-35.64.48-2.07.53-4.24.91-7.39-19.14,23.79-39.65,43.62-70,49.34-6.28-.72-12.57-1.44-19.7-2.26,3.34,2.64,6.34,5.02,9.33,7.39,3.36,3.82,6.72,7.63,10.08,11.45,5.68,4.39,11.36,8.77,17.03,13.16,1.75,1.36,3.35,3.01,5.28,4.03,10.58,5.61,21.81,9.34,33.6,11.5,12.98,2.38,25.87,4.81,38.56-1.3,2.91-1.4,4.36.23,5.29,2.9,1.19,3.45.94,6.26-2.82,7.84-2.91,1.23-5.78,2.65-8.8,3.52-5.08,1.46-10.36,2.24-15.39,3.85-20.85,6.7-41.23,4.94-61.21-3.28-9.78-4.02-19.23-8.89-29.13-12.58-9.09-3.39-18.41-6.83-27.93-8.26-16.79-2.52-31.84,1.39-43.52,15.19-4.5,5.32-8.13,10.69-9.2,17.5-2.83,18.03,3.49,32.94,16.33,45.26,25.59,24.53,59.62,22.81,87.14,3.64,12.35-8.6,23.87-18.31,37.33-25.42,20.51-10.84,42.09-15.78,65.2-14.49,20.6,1.15,39.02,8.1,55.09,20.94,10.31,8.23,17.76,18.74,22.67,31.01-3.24,4.54-7.59,2.26-11.62,1.87l-1.77-.46c-.55-.19-1.11-.38-1.66-.57-.73-.27-1.45-.67-2.21-.78-26.9-4.18-51.96-.4-74.01,16.84-10.62,8.31-22.35,14.59-35.23,18.65-2.1.66-4.18,1.39-6.81,2.27,3.97,1.09,7.3,1.93,10.58,2.92,11.78,3.56,22.14,9.85,32.15,16.83,14.33,9.99,30.03,15.32,47.69,13.93,12.65-.51,23.25-6.34,33.39-13.15,3.77-2.53,7.14-5.65,11.04-8.79.95,6.53-.76,12.08-3.17,17.58-6.51,14.85-16.98,26.69-29.87,35.88-8.21,5.85-17.92,9.93-27.42,13.59-15.45,5.95-31.85,6.49-48.17,5.69-6.25-.31-12.52-2.09-18.6-3.81-16.14-4.57-30.68-12.65-44.34-22.12-7.86-5.45-14.87-12.13-22.26-18.27-7.01-5.83-13.87-11.85-21.08-17.42-2.85-2.2-6.28-4.31-9.73-4.95-19.18-3.57-37.85-8.74-55.89-16.18-5.28-2.61-10.56-5.22-15.84-7.82-4.5-2.79-8.97-5.65-13.52-8.35-3.25-1.93-5.91-.99-8.59,2.6,3.97,3.34,7.82,6.59,11.67,9.83,6.6,4,13.19,8.01,19.79,12.01,13.53,7.76,28.36,11.95,43.34,15.75,6.85,1.74,13.69,3.47,20.5,5.34,6.91,1.89,10.21,8.01,14.53,13.47-2.2-.4-4.39-.8-6.59-1.2-34.71-6.26-66.37-20.06-96.27-38.43-23.54-14.46-44.49-32-62.92-52.46-9.4-10.44-18.53-21.27-26.46-32.84-7.44-10.85-13.35-22.78-19.54-34.45-10-18.84-16.38-39.06-21.32-59.69-1.87-7.81-2.16-16-3.26-24-.51-3.71-1.24-7.39-1.87-11.09,0-12.45,0-24.9-.01-37.34.39-1.21,1.01-2.4,1.14-3.64.82-7.66.98-15.44,2.41-22.98,1.65-8.78,4.56-17.31,6.59-26.03,3.37-14.45,9.43-27.88,15.19-41.44,9.28-21.84,21.68-41.85,36.73-60.08,8.08-9.78,17.35-18.59,26.34-27.58,17.88-17.88,39.19-31.05,61.33-42.72,11.41-6.02,23.9-9.99,35.89-14.9.48-.2.9-.54,1.34-.82.55-.26,1.1-.52,1.65-.78ZM217.16,315.7s.06.06.06.06c-2.67-2.39-5.33-4.77-8-7.16-.31-.23-.62-.46-.94-.69l-1.5-.72c-1.57-1.12-3.07-2.35-4.72-3.33-11.22-6.68-23.11-11.76-35.99-14.14-5.28-.98-10.68-1.68-16.05-1.8-9.51-.21-19.24-1.1-28.49.52-14.1,2.47-26.55,9.2-36.37,20.06-9.01,9.97-16.32,20.88-19.3,34.29-4.19,18.82-3.41,37.33,3.04,55.53.95,2.69,2.2,5.27,3.31,7.9.31,1.25.39,2.6.95,3.72,5.76,11.46,11.44,22.97,17.49,34.27,2.42,4.52,5.57,8.68,8.68,12.78,2.86,3.77,6.12,4.57,8.64,2.61-.11-.35-.15-.76-.34-1.09-.39-.69-.84-1.35-1.3-2-7.63-10.65-12.8-22.44-16.37-34.98-5.7-19.98-4.53-39.32,3.86-58.55,8.28-18.98,21.96-32.31,40.49-40.49,12-5.3,25-6.99,38.18-5.67,22.31,2.24,42.5,9.64,59.29,25.01.68.62,1.14,1.47,2.28,2.99-1.96-.64-2.94-.95-3.92-1.28-6.65-2.19-13.3-4.38-19.95-6.57-4.85-1.7-9.7-3.4-14.55-5.1-1.6-.52-3.2-1.04-4.79-1.55-.26-.04-.51-.07-.77-.11-4.24-.52-8.47-1.05-12.71-1.57-.28,0-.57-.01-.85-.02-1.31-.03-2.63-.05-3.94-.08-1.33.02-2.67.03-4,.05-2.07.11-4.13.21-6.2.32-9.81-.22-19.15,2.11-28.02,5.95-15.08,6.53-24.21,18.65-30.1,33.56l-3.21,9.46c-3.65,10.1-4.09,20.57-1.85,30.85,4.85,22.26,14.69,42.11,30.96,58.36,2.94,2.93,6.8,4.96,10.32,7.28.75.49,1.83.48,2.84.71,0-.75.1-1.07-.02-1.26-.4-.68-.81-1.37-1.32-1.96-11.95-13.97-17.75-30.46-19.06-48.49-1.57-21.66,1.98-41.62,20.19-56.5,7.22-5.9,15.28-9.28,24.11-11.38.63-.15,1.38.2,2.79.44-1.22.99-1.84,1.57-2.53,2.04-8.73,6.01-17.4,11.95-23.43,21.09-8.86,13.43-11.67,28.13-10.14,43.84,1.3,13.35,4.65,26.02,13.07,36.9,5.77,7.46,13.1,13.13,20.52,18.82,16.25,12.44,33.69,22.32,54.02,26.18,6.7,1.27,13.56,1.69,20.35,2.5,4.69,1.13,9.38,2.26,14.06,3.4,6.32,2.29,12.66,4.51,18.94,6.89,21.02,7.96,39.24,21.17,58.97,31.54.93.49,2.14,1.02,2.51,1.85.92,2.08,1.43,4.34,2.1,6.53-1.86.18-3.72.37-5.59.53-.25.02-.51-.12-.77-.17-15.05-3.01-27.99-10.69-40.88-18.47-8.59-5.18-17-10.73-25.91-15.31-5.27-2.71-11.35-3.83-17.07-5.67-.22.42-.44.84-.65,1.25,2.91,2.42,5.72,4.96,8.74,7.23,6.32,4.77,13.08,8.99,19.05,14.15,20.76,17.92,44.21,28.99,71.93,30.81,22.04,1.45,41.9-4.87,60.57-15.61,5.64-3.24,10.25-8.28,15.32-12.49-.22-.3-.44-.6-.66-.9-3.8,1.58-7.61,3.16-11.41,4.74-6.61.19-13.23.38-19.84.57-.29-.02-.58-.05-.86-.07-15.61-1.94-29.58-8.26-42.29-17.09-26.32-18.27-55.44-26.79-87.31-26.52-2.63-.61-5.27-1.22-7.9-1.83-3.17-.71-6.33-1.41-9.5-2.12-1.63-.46-3.32-.76-4.86-1.43-1.46-.63-2.75-1.64-4.12-2.49,1.29-.96,2.47-2.5,3.89-2.77,4.02-.76,8.14-.99,12.23-1.43,5.25.46,10.5.91,15.75,1.37.85.27,1.72.82,2.55.78,8.44-.49,17.11-.04,25.27-1.84,20.13-4.43,39.3-11.18,55.85-24.45,7.01-5.62,15.57-9.56,23.88-13.23,13.11-5.78,26.98-8.35,41.41-6.62,3.22.62,6.43,1.24,9.65,1.86.24-.4.48-.81.72-1.21-5.34-3.62-10.68-7.23-16.02-10.85-4.57-2.66-8.89-5.92-13.74-7.86-17.25-6.89-35.15-8.2-53.42-5.08-22.71,3.87-41.75,15.35-59.77,28.88-17.47,13.13-37.03,21.28-58.46,25.13-1.3-.14-2.59-.35-3.89-.41-12.75-.64-24.84-4.23-35.58-10.75-11.26-6.84-20.13-16.57-27.12-27.88-4.97-8.05-7.9-17.19-8.17-26.21-.42-14.16,4.98-26.86,13.78-38.37,10.56-13.8,24.17-20.39,41.19-20.6,15.2-.18,29.24,4.67,42.72,10.97,16.04,7.5,32.09,14.79,49.17,19.7,10.16,2.92,20.39,4.51,30.93,3.98,1.64-.08,3.26-.62,4.89-.95-.03-.42-.06-.84-.08-1.26-.93-.35-1.83-.89-2.78-1.02-5.55-.79-11.11-1.62-16.69-2.2-18.57-1.93-34.26-11.29-48.9-21.38-11.23-7.75-20.13-18.95-29.75-28.91-5.02-5.2-9.37-11.04-14.02-16.6-.93-.57-1.87-1.14-2.8-1.71ZM400.8,214.19c-2.39-1.92-4.78-3.85-7.17-5.77-6.08-6.48-12.15-12.97-18.43-19.66-1.08,1.29-1.48,1.8-1.91,2.27-4.82,5.38-8.05,5.63-12.49-.04-4.58-5.84-10.43-9.17-17.33-11.23-1.72-.51-3.66-1.22-4.83-2.47-11.3-12.07-21.56-24.85-29.21-39.72-4.65-9.03-11.98-16.26-19.76-24.02.16,1.78.12,2.69.34,3.54,1.75,6.64,3.33,13.33,5.39,19.88,6.68,21.19,18.94,37.98,38.35,49.49,11.49,6.81,20.45,16.24,25.72,28.88,1.66,3.98,3.77,8,6.54,11.27,14.31,16.95,31.78,29.78,52.04,38.86,11.27,5.05,21.99,10.97,31.14,19.54,15.32,14.35,23.69,31.63,21.55,52.76-2.74,27.09-22.67,48-52.41,46.48-2.62-.13-5.19-1.03-7.79-1.57.01-.44.02-.89.04-1.33,2.08-.64,4.13-1.35,6.23-1.92,3.83-1.03,7.76-1.76,11.52-2.99,21.01-6.81,33.35-25.29,31.45-47.25-1.74-20.06-12.99-34.15-29.5-44.16-9.57-5.81-20.13-9.96-30.04-15.25-14.86-7.94-27.36-18.82-38.25-32.13-.1.81-.3,1.32-.19,1.74,2.46,9.33,4.94,18.66,7.49,27.96.18.65.93,1.18,1.48,1.7,3.97,3.75,8,7.44,11.9,11.25.82.8,1.95,2.64,1.68,2.96-.89,1.07-2.3,2.22-3.6,2.34-3.46.32-6.96.11-10.93.11.39,5.02-1.28,9.99,1.34,14.47,4.89.25,7.82-1.96,10.7-5.35,1.93-2.27,5.33-4.08,8.3-4.49,4.37-.61,9.03-.28,13.4.52,12.93,2.36,24.15,8.14,32.4,18.62,7.17,9.11,13.07,19,11.16,31.24-1.97,12.64-8.26,22.68-19.54,29.37-10.04,5.95-22.97,4.84-32.64-3.15-8.91-7.37-11.63-18.56-7.24-29.8.65-1.65,1.3-3.3,1.95-4.96-1.85.45-3.1,1.34-4.12,2.45-9.83,10.67-8.99,26.7,1.81,38.94,8.61,9.76,19.89,13.93,32.28,15.78,16.9,2.52,32.68-1.27,46.08-11.42,20.16-15.28,29.21-36.77,30.44-61.65.41-8.29-.15-16.55-3.62-24.45-2.46-5.61-4.07-11.6-6.06-17.42-.82-1.32-1.65-2.63-2.47-3.95-1.34-2.22-2.58-4.51-4.04-6.64-9.24-13.45-22.5-21.6-37.02-28.18-11.44-5.19-22.74-10.69-34.1-16.05-2.67-1.8-5.35-3.6-8.02-5.4ZM273.75,112.18c.48-13.67-7.38-23.19-21.63-26.18-3.1-.93-6.15-2.05-9.3-2.75-10.85-2.39-21.86-2-32.77-.87-5.17.53-5.94,3.15-3.75,7.91,4.92,10.7,10.79,21.24,5.3,33.63-.23.51,1.23,2.47,2.12,2.65,2.92.59,5.95.67,8.95.95-1.23,7.46.35,9.15,7.75,7.74,2.99-.57,5.74-2.34,8.66-3.58,2.34,3.49,1.81,4.3-8.78,12.69.98,1.21,1.96,2.4,2.92,3.62,3.47,4.41,5.43,5.39,10.57,3.29,3.81-1.56,7.14-4.31,10.69-6.54,3.31-3.16,7.11-5.96,9.84-9.56,5.12-6.76,8.9-14.28,9.44-23.02ZM195.55,232.45v.02c11.39,9.32,22.77,18.63,34.15,27.95,1.22.78,2.44,1.55,3.96,2.52,1.11-5.51,1.3-10.25-1.5-14.66-.75-1.33-1.66-2.6-2.23-4.01-5.11-12.6-20.14-20.97-33.98-17.67-1.19.28-2.27,1.06-3.4,1.61.71,1.16,1.42,2.31,2.13,3.47.29.26.58.52.87.78ZM290.35,240.29l-.03.07c1.15-1.43,2.3-2.86,3.63-4.51-1.11-.61-1.52-.97-1.99-1.07-22.68-5.04-43.1,7.31-47.29,31.76-.4,2.35.79,2.72,2.52,2.92,8.13,2.98,15.57,2.71,22.63-3.28,8.43-7.16,14.43-16.11,20.39-25.18.25-.19.31-.43.15-.71ZM202.27,40.64c-.4,1.2-.8,2.4-1.2,3.61-.69,1.09-1.84,2.12-2,3.29-.72,5.34-1.39,10.71-1.64,16.09-.15,3.36,1.65,6.03,4.42,7.87.78-4.03.86-8.14,2.41-11.6,2.51-5.6,5.53-11.11,9.15-16.06,7.45-10.17,18.07-16.59,29.88-19.74,10.34-2.76,21.33-3.04,32.04-4.41.73.09,1.46.18,2.19.27,1.37.36,2.74.72,4.11,1.08.12-.34.25-.68.37-1.01-1.17-.59-2.33-1.17-3.5-1.76-2.62-1.22-5.12-2.96-7.87-3.57-13.21-2.95-26.47-3.87-39.35,1.44-12.24,5.05-23.26,11.7-29.02,24.51ZM275.7,136.76c-2.19,2.76-4.47,5.45-6.55,8.29-4.64,6.36-12.15,11.1-11.61,20.41-3.86,14.86-13.44,19.82-26.74,20.88-5.15.41-10.33.36-15.49.66-17.61,1.02-26.85,17.39-27.31,30.89,25.29-8.92,42.27,2.27,55.45,23.39,6.81-8.68,14.89-15.02,25.42-17.76,10.25-2.67,20.43-4.17,30.09,2.46,2.26-3.9,4.18-7.52,6.43-10.92.65-.97,2.67-2.11,3.32-1.77,1.14.61,2.28,2.25,2.38,3.54.2,2.46.27,5.25-.67,7.44-3.02,7-6.15,14.01-9.94,20.61-7.1,12.35-15.77,23.52-26.95,32.56-9.61,7.77-20.04,9.54-31.03,3.56-8.81-4.8-17.52-9.88-25.79-15.54-16.48-11.3-30.43-25.59-44.1-39.98-12.67-13.34-28.02-21.39-45.21-26.69-.42-.15-.84-.29-1.26-.44.17.36.34.73.51,1.09,2.74,2.42,5.56,4.77,8.2,7.29,1.79,1.71,3.34,3.67,5.71,6.3-16.31,3.89-30.49,2.36-43.87-6.08-.24.63-.48,1.26-.72,1.89,5.38,3.37,10.77,6.75,16.15,10.12,1.99.96,3.89,2.33,6,2.81,5.79,1.32,11.66,2.31,17.51,3.35,15.98,2.82,29.18,9.87,38.69,23.6,6.47,9.35,13.57,18.31,21.01,26.92,13.11,15.17,27.12,29.46,45.25,38.79,11.35,5.84,23.34,9.29,34.99,1.52,10.58-7.06,20.64-14.97,30.4-23.14,5.84-4.89,10.78-10.89,15.93-16.57,10.81-11.94,20.54-24.63,25.62-40.21,4.01-12.31.94-23.97-8-31.28-3.68-2.52-7.36-5.05-11.03-7.57-1.12-.88-2.27-1.73-3.37-2.65-7.57-6.3-15.97-11.86-22.49-19.11-10.63-11.82-16.14-26.51-19.41-42.01-.58-2.77-1.58-5.45-2.5-8.56-1.84,4.38-3.42,8.15-4.99,11.91ZM334.09,155.16l-.22-.06h.28c.34.96.46,2.11,1.07,2.83,4.39,5.22,9.3,9.76,15.91,12.12,3.45,1.23,7.39,2.04,10.05,4.29,5.91,5,12.49,7.16,20,6.98,4.77-.11,7.48,2.18,10.13,6.09,3.49,5.17,7.59,10.22,12.39,14.14,10.09,8.24,21.66,14.16,33.86,18.76,1.63.61,3.25,1.27,5.11,1.99-1.06-4.43-2.03-8.25-2.89-12.1-1.67-7.47-5.21-13.8-11.16-18.72-1.82-1.5-3.54-3.13-5.29-4.72-7.16-6.51-15.35-12.26-24.71-13.59-16.27-2.31-32.49-4.34-48.23-9.35-6.03-1.92-11.66-4.28-16.29-8.67ZM460.64,145.54c-4-4.13-7.87-8.22-13.5-10.46-12.27-4.88-24.29-4.04-36.49.16-16.3,5.61-32.58,5.94-48.93-.2-13.16-4.94-24.96-11.66-33.41-23.22-5.31-7.26-10.58-14.55-15.51-22.07-16.44-25.02-51.75-33.8-75.67-26.55-7.45,1.45-15.13,2.25-21.32,7.3.79.44,1.44.45,2.07.37,18.76-2.32,36.38,1.07,52.57,10.92,15.82,9.63,28.8,22.49,39.91,37.14,12.97,17.1,29.89,28.09,50.05,34.71,16.79,5.51,34.04,5.74,51.45,5.47,8.14-.12,16.38.63,24.44,1.84,12.19,1.83,27.88,15.78,27.4,29.2-.13,3.75.74,7.54,1.15,11.31,1.61-3.29,2.16-6.76,3.35-9.99,5.69-15.46,4.51-30.08-4.97-43.77-.62-.89-1.72-1.45-2.59-2.16ZM417.26,169.06c9.1,4.74,16.54,11.28,23.26,18.82,6.76,7.59,9.79,16.98,13.65,26.18,1.86-10.62,1.17-21.08-4.53-30.19-7.3-11.65-19.44-14.44-32.38-14.82ZM353.95,91.81c6.04,13.82,17.88,19.3,30.87,17.61,12.12-1.58,22.68-8.64,23.46-21.43-7.76,11.19-18.55,16.14-31.98,13.48-5.8-1.15-11.2-4.41-16.75-6.78-1.74-.75-3.39-1.73-5.61-2.87Z"/>
      <path class="cls-5" d="M297.41,0c12.39.96,24.98.9,37.12,3.18,12.34,2.32,24.44,6.39,36.3,10.66,46.75,16.84,86.83,43.55,118.77,81.9,31.21,37.48,51.48,80.29,60.78,128.1,2.45,12.61,3.25,25.63,3.75,38.5.48,12.37.2,24.84-.84,37.17-2.21,26.17-8.97,51.23-19.66,75.29-8.12,18.28-18.31,35.31-29.89,51.52-15.1,21.14-32.54,40.09-52.96,56.29-18.09,14.35-38.05,25.14-59.88,32.38-4.87,1.62-10.34,1.43-15.53,2.08-5.89-3.35-11.77-6.69-17.66-10.04,7.44-2.66,14.42-4.07,21.29-5.86,18.6-4.85,36.37-11.64,52.03-23.16,1.09-.76,2.18-1.53,3.26-2.29.49-.31.99-.62,1.48-.92,4.06-3.48,8.12-6.95,12.17-10.43.72-.5,1.44-.99,2.15-1.49,1.19-.79,2.53-1.43,3.56-2.4,24.92-23.42,45.68-50.03,61.21-80.56,7.89-15.5,14.09-31.66,17.52-48.79,3.74-14.81,5.87-29.85,6.74-45.09,2.19-38.51-4.85-75.43-19.1-111.09-2.43-6.09-5.7-11.85-8.58-17.76-6.75-11.25-13.51-22.5-20.26-33.75-.74-1.07-1.48-2.14-2.22-3.22-.6-.57-1.21-1.13-1.81-1.7-5.22-6.47-10.43-12.93-15.65-19.4h0c-3.84-4.16-7.28-8.8-11.59-12.39-10.96-9.13-22.62-17.44-33.43-26.73-11.63-9.99-24.67-17.01-38.89-22.53-20.99-8.16-41.82-16.58-64.45-19.23-2.04-.24-4.01-1.83-5.81-3.09-6.68-4.67-13.28-9.47-19.88-14.25-.15-.11-.02-.6-.02-.92Z"/>
      <path class="cls-3" d="M435.76,474.8l-1.48.92c-1.7-.11-3.34-.13-3.26,2.29-15.65,11.52-33.42,18.3-52.03,23.16-6.87,1.79-13.85,3.2-21.29,5.86,5.89,3.35,11.77,6.69,17.66,10.04,2.38,9.59,1.04,10.62,10.1,12.69,6.2,1.42,12.34,3.12,18.51,4.7-17.66,1.39-33.36-3.94-47.69-13.93-10-6.97-20.36-13.27-32.15-16.83-3.28-.99-6.61-1.83-10.58-2.92,2.63-.88,4.71-1.6,6.81-2.27,12.88-4.07,24.62-10.35,35.23-18.65,22.05-17.24,47.12-21.02,74.01-16.84.76.12,1.47.52,2.21.78l1.66.57c.59.15,1.18.31,1.77.46-1.57,2.87-2.56,5.7.33,8.44.29.27.13,1.01.18,1.53Z"/>
      <path class="cls-1" d="M161.39,510.77c-6.6-4-13.19-8.01-19.79-12.01,2.23-4.56,6.78-3.18,10.44-4.08,5.28,2.61,10.56,5.22,15.84,7.82-.89,1.48-1.66,3.06-2.72,4.4-1.11,1.41-2.5,2.58-3.77,3.86Z"/>
      <path class="cls-3" d="M1.5,253.84c0,12.45,0,24.9.01,37.34-.23-1.4-.62-2.79-.68-4.19C.49,278.47.08,269.95,0,261.42c-.02-2.52.97-5.06,1.5-7.58Z"/>
      <path class="cls-1" d="M611.74,278.08c-.64.45-1.04.95-1.38.91-.36-.04-.66-.59-.99-.92.33-.33.63-.88.99-.91.34-.04.74.46,1.38.92Z"/>
      <path class="cls-3" d="M190.12,12.88c-.55.26-1.1.52-1.65.78.55-.26,1.1-.52,1.65-.78Z"/>
      <path class="cls-4" d="M241.9,507.28c-6.79-.81-13.65-1.23-20.35-2.5-20.32-3.86-37.77-13.74-54.02-26.18-7.42-5.68-14.75-11.35-20.52-18.82-8.42-10.88-11.77-23.56-13.07-36.9-1.53-15.71,1.28-30.41,10.14-43.84,6.03-9.14,14.7-15.08,23.43-21.09.69-.48,1.31-1.05,2.53-2.04-1.42-.24-2.16-.59-2.79-.44-8.83,2.1-16.9,5.48-24.11,11.38-18.22,14.88-21.77,34.84-20.19,56.5,1.31,18.03,7.11,34.53,19.06,48.49.51.6.92,1.28,1.32,1.96.11.19.02.51.02,1.26-1.01-.24-2.09-.22-2.84-.71-3.52-2.33-7.38-4.35-10.32-7.28-16.27-16.24-26.11-36.1-30.96-58.36-2.24-10.28-1.8-20.75,1.85-30.85.91,1.27,1.59,2.83,2.78,3.72,1.72,1.28,3.77,2.67,5.74,2.78.89.05,2.16-2.76,2.91-4.43,1.59-3.54,2.96-7.18,4.42-10.78,1.38-2.21,2.77-4.42,4.15-6.62.88-.79,1.87-1.48,2.62-2.37,6.35-7.52,14.21-12.76,23.32-16.48,14.15-5.78,28.88-6.84,43.88-6.35,4.67.42,9.34,1.11,14.02,1.12,1.66,0,4.42,1.93,5.3-1.5,6.65,2.19,13.3,4.38,19.95,6.57.98.32,1.96.64,3.92,1.28-1.14-1.51-1.6-2.37-2.28-2.99-16.79-15.37-36.98-22.77-59.29-25.01-13.17-1.32-26.18.37-38.18,5.67-18.52,8.19-32.21,21.51-40.49,40.49-8.39,19.22-9.56,38.57-3.86,58.55,3.58,12.54,8.74,24.34,16.37,34.98.46.65.9,1.31,1.3,2,.19.33.24.74.34,1.09-2.51,1.96-5.77,1.16-8.64-2.61-3.11-4.1-6.26-8.26-8.68-12.78-6.06-11.3-11.73-22.81-17.49-34.27-.56-1.12-.65-2.47-.95-3.72.18-1.37.71-2.8.49-4.1-2.52-14.74-3.11-29.45.45-44.11,4.59-18.91,14.63-34.1,30.69-45.29,8.85-6.17,18.96-9.28,28.99-12.64.76-.09,1.52-.19,2.28-.28,2.93-.32,5.86-.65,8.79-.97,3.46-.02,6.92-.04,10.39-.05,15.12.77,29.56,4.43,43.57,10.05,2.68,1.08,5.41,2.03,8.12,3.05,3.74,1.3,7.49,2.6,11.23,3.9,0,0-.06-.06-.06-.06.93.57,1.87,1.14,2.8,1.71,4.65,5.55,9,11.4,14.02,16.6,9.62,9.97,18.52,21.17,29.75,28.91,14.64,10.09,30.33,19.45,48.9,21.38,5.58.58,11.13,1.41,16.69,2.2.96.14,1.86.67,2.78,1.02.03.42.06.84.08,1.26-1.63.33-3.25.86-4.89.95-10.54.53-20.77-1.06-30.93-3.98-17.08-4.91-33.13-12.2-49.17-19.7-13.48-6.3-27.51-11.15-42.72-10.97-17.03.21-30.63,6.79-41.19,20.6-8.8,11.51-14.2,24.21-13.78,38.37.27,9.02,3.19,18.16,8.17,26.21,6.98,11.31,15.86,21.04,27.12,27.88,10.74,6.52,22.82,10.11,35.58,10.75,1.3.07,2.59.27,3.89.41,2.51.59,5,1.57,7.53,1.68,3.41.16,6.93.05,10.25-.64,7.35-1.53,15.16-2.36,21.8-5.55,12.83-6.15,25.19-13.39,37.37-20.8,17.45-10.61,35.52-19.34,56.07-21.81,12.67-1.53,25.32-2.1,37.67,2.17,4.6,1.59,9.19,3.25,13.78,4.87,1.08,1.05,2.36,1.97,3.19,3.19,1.29,1.89,2.27,3.99,3.38,6-14.43-1.73-28.3.85-41.41,6.62-8.31,3.66-16.87,7.61-23.88,13.23-16.55,13.27-35.72,20.02-55.85,24.45-8.17,1.8-16.83,1.35-25.27,1.84-.83.05-1.7-.5-2.55-.78.67-2.04,1.34-4.07,2.01-6.1,7.4-3.12,15.16-5.59,22.13-9.47,17.54-9.75,35.21-19.08,54.52-24.93,1.12-.34,2.46-.8,3.09-1.66.86-1.16,1.81-2.97,1.44-4.08-.31-.94-2.43-1.74-3.77-1.77-1.78-.03-3.54.92-5.35,1.17-16.29,2.25-30.77,8.98-44.78,17.29-12.25,7.27-24.87,13.9-38.65,18.11-4.73,1.44-8.98,4.39-12.88,9.33h6.52c.08.25.07.51-.03.75-4.08.44-8.2.67-12.23,1.43-1.42.27-2.6,1.81-3.89,2.77,1.37.84,2.66,1.86,4.12,2.49,1.54.67,3.23.97,4.85,1.43-1.03.45-2.06.89-3.24,1.4.6,1.91,1.15,3.63,1.7,5.35Z"/>
      <path class="cls-4" d="M486.47,274.4c1.99,5.82,3.59,11.81,6.06,17.42,3.47,7.9,4.03,16.16,3.62,24.45-1.24,24.87-10.28,46.37-30.44,61.65-13.4,10.16-29.17,13.95-46.08,11.42-12.4-1.85-23.67-6.02-32.28-15.78-10.8-12.24-11.64-28.26-1.81-38.94,1.02-1.11,2.27-2,4.12-2.45-.65,1.65-1.31,3.3-1.95,4.96-4.39,11.24-1.67,22.44,7.24,29.8,9.67,7.99,22.59,9.11,32.64,3.15,11.28-6.69,17.57-16.73,19.54-29.37,1.91-12.25-3.98-22.14-11.16-31.24-8.25-10.48-19.47-16.26-32.4-18.62-4.38-.8-9.03-1.13-13.4-.52-2.97.41-6.37,2.22-8.3,4.49-2.88,3.39-5.81,5.6-10.7,5.35-2.61-4.48-.95-9.46-1.34-14.47,3.97,0,7.47.21,10.93-.11,1.3-.12,2.71-1.27,3.6-2.34.26-.32-.86-2.16-1.68-2.96-3.91-3.81-7.93-7.5-11.9-11.25-.55-.52-1.3-1.04-1.48-1.7-2.55-9.31-5.03-18.63-7.49-27.96-.11-.42.09-.93.19-1.74,10.9,13.32,23.4,24.2,38.25,32.13,9.91,5.29,20.47,9.45,30.04,15.25,16.51,10.01,27.76,24.1,29.5,44.16,1.91,21.96-10.44,40.45-31.45,47.25-3.77,1.22-7.69,1.96-11.52,2.99-2.1.56-4.16,1.27-6.23,1.92-.01.44-.02.89-.04,1.33,2.6.54,5.17,1.43,7.79,1.57,29.75,1.52,49.68-19.39,52.41-46.48,2.13-21.13-6.23-38.41-21.55-52.76-9.15-8.57-19.87-14.48-31.14-19.54-20.26-9.09-37.73-21.91-52.04-38.86-2.76-3.27-4.87-7.29-6.54-11.27-5.28-12.64-14.23-22.07-25.72-28.88-19.42-11.51-31.68-28.3-38.35-49.49-2.06-6.54-3.63-13.24-5.39-19.88-.22-.84-.18-1.76-.34-3.54,7.78,7.76,15.12,14.99,19.76,24.02,7.65,14.87,17.91,27.65,29.21,39.72,1.17,1.25,3.11,1.96,4.83,2.47,6.9,2.06,12.75,5.38,17.33,11.23,4.44,5.67,7.67,5.42,12.49.04.43-.48.83-.98,1.91-2.27,6.27,6.69,12.35,13.18,18.43,19.66.46,5.63,4.13,8.65,8.81,10.86,1.53.71,3.07,1.41,4.6,2.12,4.58,3.28,8.96,6.9,13.78,9.78,14.24,8.52,28.87,16.4,42.89,25.24,6.07,3.83,11.04,9.41,16.51,14.19,2.08,1.26,4.16,2.52,6.24,3.78ZM363.22,197.74c.21,1.89-.04,3.28.52,4.13,4.02,6.04,7.7,12.43,12.45,17.85,13.63,15.54,30.52,26.8,48.94,35.98,7.9,3.94,15.95,7.9,23,13.11,9.2,6.81,18.01,14.29,24,24.47,2.28,3.88,5.35,7.3,8.06,10.93.46-.1.92-.19,1.38-.29-.32-3.27-.31-6.61-1.01-9.79-2.87-13.03-10.81-22.79-21.63-29.8-13.3-8.62-27.31-16.12-40.89-24.32-15.45-9.33-30.42-19.28-40.81-34.64-3.12-4.61-7.97-6.54-14.02-7.63Z"/>
      <path class="cls-4" d="M460.64,145.54c.88.71,1.98,1.27,2.59,2.16,9.48,13.69,10.66,28.31,4.97,43.77-1.19,3.23-1.74,6.7-3.35,9.99-.41-3.77-1.28-7.56-1.15-11.31.47-13.43-15.21-27.38-27.4-29.2-8.07-1.21-16.3-1.96-24.44-1.84-17.41.27-34.66.04-51.45-5.47-20.16-6.62-37.08-17.61-50.05-34.71-11.1-14.65-24.08-27.51-39.91-37.14-16.19-9.86-33.81-13.24-52.57-10.92-.64.08-1.29.07-2.07-.37,6.18-5.05,13.87-5.85,21.32-7.3,2.77.7,5.52,1.86,8.32,2.03,14.54.88,28,5.02,40.56,12.4,13.18,7.75,22.86,19.08,32.22,30.76,21.17,26.39,48.84,38.31,82.39,37.21,4.88-.16,9.38-1.26,12.72-5.33.75-.91,2.25-1.37,3.49-1.67,14.09-3.46,27.52-2.53,39.83,6.05,1.03.72,2.63.62,3.97.89Z"/>
      <path class="cls-4" d="M411.16,547.6c3.8-1.58,7.61-3.16,11.41-4.74.22.3.44.6.66.9-5.08,4.21-9.69,9.25-15.32,12.49-18.67,10.73-38.53,17.05-60.57,15.61-27.72-1.82-51.17-12.89-71.93-30.81-5.97-5.15-12.74-9.38-19.05-14.15-3.02-2.27-5.83-4.81-8.74-7.23.22-.42.44-.84.65-1.25,5.72,1.84,11.8,2.96,17.07,5.67,8.91,4.57,17.32,10.12,25.91,15.31,12.9,7.78,25.83,15.46,40.88,18.47.26.05.52.19.77.17,1.86-.16,3.73-.35,5.59-.53-.67-2.19-1.18-4.45-2.1-6.53-.37-.83-1.58-1.36-2.51-1.85-19.74-10.36-37.96-23.58-58.97-31.54-6.28-2.38-12.63-4.6-18.94-6.89.83-.64,1.66-1.29,2.49-1.93.82,0,1.64,0,2.45,0,.28.02.56.04.83.06,1.3.2,2.6.41,3.91.61.54.1,1.09.21,1.63.31.51.06,1.01.13,1.52.19.9.23,1.78.52,2.69.68,17.55,2.96,34.62,7.6,50.48,15.81,8.91,4.61,17.3,10.21,26.11,15.03,14.57,7.95,30.11,12.34,46.84,11.13,5.69-.41,11.65-.65,16.24-4.97Z"/>
      <path class="cls-4" d="M261.32,347.96c-3.36-3.82-6.72-7.63-10.08-11.45,1.57-.81,3.07-1.81,4.72-2.39,1.92-.67,3.96-.97,5.95-1.43-.1-.44-.2-.88-.31-1.32,30.35-5.72,50.86-25.55,70-49.34-.37,3.15-.43,5.32-.91,7.39-3.32,14.37-8.81,27.37-22.08,35.64-7.88,4.91-16.51,6.82-25.63,7.33-3.74.21-7.46.89-11.19,1.35-.1.56-.21,1.12-.31,1.67,2.88,1.31,5.64,3.08,8.66,3.85,13.12,3.37,25.21.68,36.22-7.04,13.88-9.73,21.5-23.33,24.09-39.84,1.1-7.04,1.54-14.19,2.32-21.28.1-.88.27-1.85.72-2.58,2.97-4.74,6.03-9.43,9.59-14.95,1.29,4.95,2.91,9.76,3.76,14.69,1.98,11.53,2.86,23.2.83,34.78-3.18,18.09-11.92,32.29-28.58,41.53-12.71,7.05-25.48,8.68-39.21,4.6-.98-.29-2.02-.46-2.95-.88-6.19-2.8-12.44-5.5-18.51-8.56-3.21-1.62-5.83-4.71-10-3.15-.34.13-.66.33-.95.48,1.98,2.68,3.89,5.28,5.8,7.87-.65,1.01-1.31,2.01-1.96,3.02Z"/>
      <path class="cls-4" d="M328.39,65.36c.79.77,1.85,1.4,2.33,2.32,4.56,8.79,9.27,17.51,13.38,26.51,1.34,2.94,1.46,6.62,1.42,9.95-.04,3.49,1.1,5.76,4.18,7.3,11.65,5.8,23.41,11.15,36.93,10.19.51,2.11,1.02,4.22,1.53,6.33-2.16.08-4.4.57-6.46.17-11.09-2.15-22.05-4.91-31.36-11.66-3.01-2.18-5.3-5.41-7.71-8.34-7.88-9.59-12.27-21.63-21.76-30.16-13.59-12.22-27.54-23.49-46.34-26.65-19.29-3.25-37.99-2.13-55.84,6.57-.45.22-.98.29-2.33-.23,1.28-1.72,2.56-3.44,3.83-5.16.67-.02,1.44.17,2-.09,7.88-3.65,15.46-8.17,23.64-10.91,26-8.7,49.48-3,70.42,14.11,3.14,2.57,5.58,5.97,8.55,8.76.8.75,2.36.67,3.58.97Z"/>
      <path class="cls-1" d="M112.12,218.96c1.23-.28,2.53-.98,3.69-.79,9.49,1.54,18.95,3.23,28.42,4.9,11.94,2.11,20.16,10.06,28.05,18.3,5.56,5.81,10.53,12.2,16,18.1,9.53,10.27,18.89,20.74,28.99,30.43,8.74,8.38,18.01,16.18,29.25,21.49,8.76,4.14,16.72,3.29,25.1-.47,10.31-4.62,18.98-11.51,27.08-19.12,12.32-11.57,24.42-23.36,33.77-37.64,5.12-7.83,10.02-15.91,10.52-25.34.33-6.3-1.49-12.72-2.41-19.07-.24-1.69-.72-3.34-1.09-5.01,8.95,7.31,12.01,18.97,8,31.28-5.08,15.59-14.81,28.27-25.62,40.21-5.14,5.68-10.08,11.68-15.93,16.57-9.76,8.17-19.82,16.09-30.4,23.14-11.64,7.77-23.63,4.32-34.99-1.52-18.12-9.33-32.14-23.62-45.25-38.79-7.44-8.6-14.54-17.57-21.01-26.92-9.51-13.73-22.71-20.78-38.69-23.6-5.85-1.03-11.72-2.03-17.51-3.35-2.1-.48-4-1.85-6-2.81Z"/>
      <path class="cls-4" d="M334.09,155.15c4.63,4.4,10.25,6.76,16.28,8.68,15.74,5.01,31.96,7.04,48.23,9.35,9.36,1.33,17.55,7.07,24.71,13.59,1.75,1.59,3.47,3.21,5.29,4.72,5.95,4.92,9.49,11.25,11.16,18.72.86,3.84,1.83,7.66,2.89,12.1-1.86-.73-3.48-1.38-5.11-1.99-12.2-4.6-23.77-10.51-33.86-18.76-4.8-3.92-8.9-8.97-12.39-14.14-2.64-3.92-5.36-6.21-10.13-6.09-7.51.18-14.09-1.98-20-6.98-2.66-2.25-6.6-3.06-10.05-4.29-6.61-2.36-11.52-6.9-15.91-12.12-.61-.73-.72-1.87-1.07-2.82l-.06.04Z"/>
      <path class="cls-3" d="M522.58,205.32c.27.62.54,1.24.82,1.87,1.4-.69,2.82-1.35,4.16-2.14.12-.07-.29-1.05-.46-1.61-1.51.63-3.01,1.26-4.52,1.89Z"/>
      <path class="cls-4" d="M290.19,241c-5.96,9.07-11.96,18.03-20.39,25.18-7.06,5.99-14.5,6.26-22.63,3.28.24-1.01.26-2.14.74-3.02,8.5-15.45,20.66-25.77,38.87-27.41,1.13-.1,2.35.86,3.52,1.33,0,0,.03-.07.03-.07-.1.06-.28.12-.27.18,0,.18.08.35.12.52Z"/>
      <path class="cls-4" d="M275.34,19.69c-10.71,1.37-21.7,1.65-32.04,4.41-11.8,3.15-22.42,9.57-29.88,19.74-3.63,4.95-6.64,10.46-9.15,16.06-1.55,3.45-1.63,7.56-2.41,11.6-2.78-1.84-4.58-4.51-4.42-7.87.24-5.38.91-10.75,1.64-16.09.16-1.16,1.3-2.19,2-3.29,1.34-.37,2.67-.75,4.01-1.12.73-.48,1.71-.79,2.15-1.45,8.18-12.35,20.45-19.29,34.06-22.85,8.43-2.21,17.79-1.04,26.74-1.05,2.44,0,4.87,1.24,7.31,1.91Z"/>
      <path class="cls-4" d="M328.46,197.16c-6.34.93-11.99-.91-16.82-4.85-10.38-8.47-20.55-17.27-25.94-29.99-2.62-6.17-4.41-12.69-6.58-19.06-1.14-2.17-2.28-4.34-3.43-6.51,1.58-3.77,3.16-7.53,4.99-11.91.92,3.11,1.92,5.79,2.5,8.56,3.27,15.5,8.79,30.19,19.41,42.01,6.52,7.25,14.92,12.8,22.49,19.11,1.1.91,2.24,1.77,3.37,2.65Z"/>
      <path class="cls-3" d="M480.23,270.62c-5.47-4.78-10.44-10.36-16.51-14.19-14.03-8.84-28.65-16.73-42.89-25.24-4.82-2.88-9.2-6.5-13.78-9.79.59-.61,1.19-1.21,1.78-1.82,11.36,5.36,22.66,10.86,34.1,16.05,14.52,6.58,27.78,14.73,37.02,28.18,1.47,2.13,2.7,4.42,4.04,6.64-1.25.06-2.51.11-3.76.17Z"/>
      <path class="cls-3" d="M35.1,343.65c-.78,2.87-1.56,5.75-2.34,8.62l-1.25.09c-.45-.92-1.05-1.8-1.34-2.76-1.6-5.26-3.09-10.55-4.7-15.81-.23-.76-.97-1.36-1.47-2.04-.1-.51-.2-1.02-.3-1.53.23-1.2.69-2.41.65-3.6-.11-3.05-.15-6.16-.76-9.14-.81-3.93-.38-8.46-4.37-11.18l-.02-.79c.08-.08.23-.18.21-.24-.05-.19-.16-.36-.25-.54-.14-.76-.29-1.52-.43-2.28,2.5-5.94.41-11.69-.72-17.48-.01-.07-.23-.09-.35-.14-.06-4.99-.11-9.99-.17-14.98,2.43-.13,3.12.77,2.83,3.35-.27,2.5.39,5.12.76,7.67.32,2.2,1.55,4.57,1.04,6.52-1.22,4.74.65,8.05,3.49,10.58-1.12,2.2-2.93,4.08-2.81,5.83.37,5.34,1.7,5.95,7.12,4.73.72-.16,2.17.16,2.3.56.53,1.67.68,3.47,1.09,5.98-2.32-.76-3.48-1.14-4.67-1.53-1.02,4.31,1.08,8.09,4.62,8.67.03,3.71.07,7.43.1,11.14.53,3.17,1.07,6.35,1.6,9.52.04.25.09.51.13.76Z"/>
      <path class="cls-4" d="M417.26,169.06c12.94.38,25.08,3.18,32.38,14.82,5.71,9.11,6.4,19.57,4.53,30.19-3.86-9.21-6.88-18.59-13.65-26.18-6.72-7.54-14.16-14.08-23.26-18.82Z"/>
      <path class="cls-3" d="M290.32,240.37c-1.18-.47-2.4-1.43-3.52-1.33-18.21,1.64-30.38,11.97-38.87,27.41-.48.88-.5,2.01-.74,3.02-1.73-.2-2.93-.57-2.52-2.92,4.19-24.45,24.61-36.8,47.29-31.76.47.11.89.47,1.99,1.07-1.32,1.64-2.47,3.08-3.63,4.51Z"/>
      <path class="cls-4" d="M229.7,260.42c-11.38-9.32-22.76-18.63-34.14-27.95,2.01-2.7,4.72-1.77,7.25-1.28,10.22,1.96,17.9,7.99,24.57,15.58.61.98,1.23,1.97,1.84,2.95,2.8,4.46,2.94,7.6.48,10.71Z"/>
      <path class="cls-4" d="M353.95,91.81c2.22,1.15,3.86,2.13,5.61,2.87,5.55,2.37,10.94,5.63,16.75,6.78,13.43,2.66,24.22-2.29,31.98-13.48-.78,12.79-11.34,19.85-23.46,21.43-13,1.69-24.83-3.79-30.87-17.61Z"/>
      <path class="cls-4" d="M162.39,328.89c-2.05.65-4.06,1.46-6.15,1.93-15.24,3.42-28.25,10.65-38.67,22.38-1.08,1.52-2.15,3.05-3.23,4.57-1.23,1.62-2.31,3.38-3.72,4.82-1.99,2.05-4.22,3.88-6.35,5.8,5.9-14.9,15.02-27.03,30.1-33.56,8.87-3.84,18.21-6.17,28.02-5.95Z"/>
      <path class="cls-3" d="M227.38,246.76c-6.67-7.59-14.35-13.62-24.57-15.58-2.53-.49-5.24-1.42-7.25,1.28,0,0,0-.02,0-.02-.29-.26-.58-.52-.87-.78l-2.13-3.47c1.13-.55,2.21-1.32,3.4-1.61,13.84-3.3,28.86,5.07,33.98,17.67.57,1.41,1.48,2.68,2.23,4.01-1.59-.5-3.18-1.01-4.77-1.51Z"/>
      <path class="cls-1" d="M275.7,136.76c1.14,2.17,2.28,4.34,3.43,6.51-.76.38-1.78.56-2.22,1.16-3.82,5.28-7.5,10.67-11.3,15.97-1.9,2.66-3.95,5.21-6.24,8.21-.77-1.34-1.3-2.24-1.82-3.15-.54-9.31,6.97-14.05,11.61-20.41,2.07-2.84,4.36-5.53,6.55-8.29Z"/>
      <path class="cls-4" d="M267.42,116.06c2-9.71-1.18-17.2-9.2-23.09-2.43-1.79-4.09-4.62-6.1-6.98,14.24,2.99,22.11,12.51,21.63,26.18-.55.46-1.59.92-1.59,1.38-.02,3.94-2.01,3.87-4.75,2.51Z"/>
      <path class="cls-1" d="M267.42,116.06c2.74,1.36,4.72,1.43,4.75-2.51,0-.46,1.03-.92,1.59-1.38-.54,8.74-4.32,16.26-9.44,23.02-2.73,3.6-6.52,6.4-9.84,9.56.44-1.32.57-2.89,1.38-3.91,5.84-7.35,9.7-15.59,11.56-24.78Z"/>
      <path class="cls-4" d="M152.03,494.68c-3.66.89-8.21-.48-10.44,4.08-3.85-3.24-7.7-6.49-11.67-9.83,2.68-3.59,5.34-4.53,8.59-2.6,4.55,2.71,9.02,5.56,13.52,8.35Z"/>
      <path class="cls-2" d="M261.32,347.96c.65-1.01,1.31-2.01,1.96-3.02.54.34,1.08.69,1.63,1.03.62.45,1.24.91,1.86,1.36,4.45,2.83,8.91,5.66,13.36,8.49-.59,1.77-1.18,3.53-1.77,5.3-5.68-4.39-11.36-8.77-17.03-13.16Z"/>
      <path class="cls-1" d="M258.45,508.75c-.83.64-1.66,1.29-2.49,1.93-4.69-1.13-9.38-2.26-14.06-3.4-.54-1.72-1.09-3.44-1.69-5.35,1.18-.51,2.21-.95,3.24-1.4,3.17.71,6.34,1.41,9.5,2.12-.47.87-.93,1.74-1.44,2.68,2.48,1.22,4.72,2.32,6.95,3.41Z"/>
      <path class="cls-2" d="M446.87,462.96c.36.47.71.94,1.07,1.41-4.06,3.48-8.12,6.95-12.17,10.43-.05-.52.1-1.26-.18-1.53-2.89-2.73-1.91-5.56-.33-8.44,4.04.39,8.38,2.67,11.62-1.87Z"/>
      <path class="cls-1" d="M261.61,331.37c.1.44.2.88.31,1.32-1.99.46-4.03.76-5.95,1.43-1.65.58-3.15,1.58-4.72,2.39-3-2.37-5.99-4.75-9.33-7.39,7.13.82,13.42,1.54,19.7,2.26Z"/>
      <path class="cls-1" d="M250.58,492.42c.11-.25.12-.5.03-.75,5.91-1.33,11.82-2.65,17.73-3.98-.67,2.03-1.34,4.06-2.01,6.1-5.25-.45-10.5-.91-15.75-1.37Z"/>
      <path class="cls-1" d="M227.38,246.76c1.59.5,3.18,1.01,4.77,1.51,2.8,4.41,2.62,9.15,1.5,14.66-1.52-.97-2.74-1.74-3.96-2.52,2.46-3.11,2.32-6.24-.48-10.71-.62-.98-1.23-1.97-1.84-2.95Z"/>
      <path class="cls-2" d="M19.21,306.3c3.99,2.72,3.56,7.25,4.37,11.18.61,2.97.65,6.08.76,9.14.04,1.19-.42,2.4-.65,3.6-1.49-7.97-2.99-15.95-4.48-23.92Z"/>
      <path class="cls-1" d="M402.44,219.28c-4.68-2.21-8.35-5.23-8.81-10.86,2.39,1.92,4.78,3.85,7.17,5.77.55,1.7,1.09,3.4,1.64,5.09Z"/>
      <path class="cls-2" d="M258.45,508.75c-2.23-1.1-4.46-2.19-6.95-3.41.51-.95.97-1.82,1.44-2.68,2.63.61,5.27,1.22,7.9,1.83.02,1.42.04,2.85.06,4.27-.82,0-1.64,0-2.45,0Z"/>
      <path class="cls-2" d="M205.99,311.86c1.08-1.09,2.15-2.18,3.23-3.26,2.67,2.39,5.33,4.77,8,7.16-3.74-1.3-7.49-2.6-11.23-3.9Z"/>
      <path class="cls-2" d="M17.65,284.83c.12.05.34.07.35.14,1.13,5.79,3.21,11.54.72,17.48-.36-5.87-.71-11.75-1.07-17.62Z"/>
      <path class="cls-2" d="M402.44,219.28c-.54-1.7-1.09-3.4-1.64-5.09,2.67,1.8,5.35,3.6,8.02,5.4-.59.6-1.19,1.21-1.78,1.82-1.54-.71-3.07-1.41-4.6-2.12Z"/>
      <path class="cls-3" d="M482.01,158.41c2.93,2.77,3.74,7.89,1.63,10.31-.54-3.44-1.09-6.87-1.63-10.31Z"/>
      <path class="cls-2" d="M76.33,300.7c-2.97-1.6-3.11-3.36-.43-5.43,1.02,1.13,1.9,2.1,2.79,3.08-.79.78-1.57,1.57-2.36,2.35Z"/>
      <path class="cls-1" d="M480.23,270.62c1.25-.06,2.51-.11,3.76-.17.82,1.32,1.65,2.63,2.47,3.95-2.08-1.26-4.16-2.52-6.24-3.78Z"/>
      <path class="cls-2" d="M34.97,342.89c-.53-3.17-1.07-6.35-1.6-9.52.53,3.17,1.07,6.35,1.6,9.52Z"/>
      <path class="cls-1" d="M202.27,40.64c.94.83,1.87,1.66,2.81,2.49-1.34.37-2.68.75-4.01,1.12.4-1.2.8-2.4,1.2-3.61Z"/>
      <path class="cls-3" d="M500.86,348.38c-.83,1.86-1.66,3.72-2.49,5.58.83-1.86,1.66-3.72,2.49-5.58Z"/>
      <path class="cls-4" d="M277.53,19.96c.33-.56.65-1.13.98-1.69,1.17.59,2.33,1.17,3.5,1.76-.12.34-.25.68-.37,1.01-1.37-.36-2.74-.72-4.11-1.08Z"/>
      <path class="cls-4" d="M172.59,328.53c-1.33.02-2.67.03-4,.05,1.33-.02,2.67-.03,4-.05Z"/>
      <path class="cls-2" d="M38.41,296.85c-1.36-2.04-.35-2.84,1.64-3.14-.55,1.05-1.09,2.09-1.64,3.14Z"/>
      <path class="cls-3" d="M398.51,126.24c.44-.79.88-1.57,1.33-2.36.39.56.77,1.13,1.16,1.69-.83.22-1.66.44-2.49.67Z"/>
      <path class="cls-2" d="M212.67,136.76c-.9-.43-1.81-.87-2.71-1.3.9.43,1.81.87,2.71,1.3Z"/>
      <path class="cls-2" d="M219.96,317.41c-.93-.57-1.87-1.14-2.8-1.71.93.57,1.87,1.14,2.8,1.71Z"/>
      <path class="cls-4" d="M266.76,347.33c-.62-.45-1.24-.91-1.86-1.36.62.45,1.24.91,1.86,1.36Z"/>
      <path class="cls-2" d="M433.48,464.37l-1.66-.57c.55.19,1.11.38,1.66.57Z"/>
      <path class="cls-2" d="M208.29,307.91c-.5-.24-1-.48-1.5-.72.5.24,1,.48,1.5.72Z"/>
      <path class="cls-3" d="M126.66,199.42c-.17-.36-.34-.73-.51-1.09.42.15.84.29,1.26.44-.25.22-.5.43-.75.65Z"/>
      <path class="cls-2" d="M37.43,299.27c.25-.3.5-.61.75-.91l-.75.91Z"/>
      <path class="cls-2" d="M36.66,301.65c.25-.3.5-.6.74-.9-.25.3-.5.6-.74.9Z"/>
      <path class="cls-2" d="M19.15,304.73c.09.18.2.35.25.54.02.06-.14.16-.21.24-.01-.26-.03-.52-.04-.78Z"/>
      <path class="cls-3" d="M290.19,241c-.05-.17-.12-.35-.12-.52,0-.06.18-.12.27-.18.15.28.1.52-.15.71Z"/>
      <path class="cls-4" d="M194.68,231.66c.29.26.58.52.87.78-.29-.26-.58-.52-.87-.78Z"/>
      <path class="cls-2" d="M216.39,143.23c-.24-.35-.49-.7-.73-1.05.24.35.49.7.73,1.05Z"/>
      <polygon class="cls-4" points="334.15 155.11 333.86 155.09 334.09 155.15 334.15 155.11"/>
      <path class="cls-4" d="M391.31,548.17c-.29-.02-.58-.05-.86-.07.29.02.58.05.86.07Z"/>
      <path class="cls-1" d="M190.85,330.31c-.26-.04-.51-.07-.77-.11.26.04.51.07.77.11Z"/>
      <path class="cls-4" d="M177.38,328.63c-.28,0-.57-.01-.85-.02.28,0,.57.01.85.02Z"/>
      <path class="cls-5" d="M99.87,180.49c2.53-8.07,4.68-15.34,7.1-22.52,3.68-10.92,3.82-10.97-4.94-18.09-4.92-4-10.12-7.67-15.13-11.57-1.58-1.23-2.96-2.7-5.31-4.87,10.04-.88,18.7-2.01,27.38-2.28,7.89-.24,7.5-.42,10.39-8.62,2.49-7.05,4.76-14.19,7.26-21.23.45-1.27,1.55-2.31,3.06-4.48,1.03,2.79,1.77,4.73,2.45,6.68,2.83,8.08,5.74,16.14,8.41,24.28.81,2.47,2.16,3.14,4.6,3.25,9.24.41,18.48,1.02,27.71,1.62,1.25.08,2.48.55,4.62,1.04-1.32,1.33-1.98,2.2-2.83,2.83-7.43,5.53-14.83,11.1-22.39,16.44-2.13,1.51-2.99,2.73-2.17,5.46,2.76,9.09,5.22,18.28,7.75,27.43.41,1.49.63,3.04,1.19,5.84-5.63-3.86-10.33-7.08-15.03-10.31-4.25-2.92-8.39-5.99-12.8-8.63-.98-.59-3.15-.05-4.31.69-8.13,5.2-16.13,10.59-24.19,15.89-.51.33-1.14.47-2.81,1.13ZM127.03,139.76c-4.46,6.65-9.09,13.22-10.82,21.68,9.19-6.29,12.14-12.39,10.81-21.74.15.14.3.28.46.42.08-.12.16-.25.24-.37-.23,0-.45,0-.68.01ZM104.03,129.65c7.34,4.16,14.59,8.59,24.31,8.35-6.7-8.67-15.44-8.71-24.31-8.35ZM156.28,129.81c-9.66-.24-18.09.32-24.83,6.92,8.91,1.47,16.86-.86,24.83-6.92ZM129.15,113.53c-2.42,7.65-2.93,14.89-.12,21.55,3.06-6.58,4.12-13.76.12-21.55ZM131.24,141.45c4.32,10.28,8.15,16.04,12.58,19.15-.71-7.73-4.68-13.93-12.58-19.15Z"/>
      <path class="cls-5" d="M44.47,230.77c-.93-5.28,3.13-7.73,6.26-10.47,2.51-2.2,3.98-4.46,3.27-7.83.26-1.06.51-2.11.76-3.15.67.13,1.14.19,1.14.23-.37,6.56,4.03,10.51,8.04,14.63,2.51,2.59,3.28,5.07.67,8.16-3.21,3.81-6.17,7.85-8.58,10.94-3.63-3.92-7.6-8.22-11.57-12.51Z"/>
      <path class="cls-5" d="M170.56,155.11c1.63-1.04,3.92-2.01,5.51-3.66,1.6-1.65,2.45-4.01,3.72-5.99.67-1.05,1.37-2.56,2.34-2.82,2.01-.54,1.32,1.28,1.83,2.42,2.14,4.75,5.47,8.58,11.99,9.74-6.78,3.27-11.29,7.59-12.86,13.57-4.13-4.37-8.17-8.64-12.53-13.25Z"/>
      <path class="cls-5" d="M80.79,169.73c-4.21-4.25-8.3-8.37-12.66-12.77,4.05-3.98,11.98-5.28,10.58-14.04.4.09.81.17,1.21.26,1.28,2.82,2.03,6.11,3.99,8.33,1.98,2.24,5.16,3.41,8.39,5.41-6.57,2.21-9.79,7.32-11.51,12.81Z"/>
      <path class="cls-5" d="M157.51,103.49c.75-6.96-6.24-9.11-8.97-14.24,4.85-3.75,9.41-7.56,9.33-14,2.89,4.24,5.9,8.17,8.29,12.44.7,1.24.14,3.8-.73,5.18-2.25,3.54-5,6.77-7.92,10.61Z"/>
      <path class="cls-3" d="M491.16,123.45c-3.5-.58-3.86-1.1-2.22-3.22.74,1.07,1.48,2.14,2.22,3.22Z"/>
      <path class="cls-2" d="M431.02,478.02c-.08-2.43,1.56-2.4,3.26-2.29-1.09.76-2.18,1.53-3.26,2.29Z"/>
      <path class="cls-2" d="M457.72,124.26c-.34-.42-.56-.67-.77-.93.29-.17.57-.41.89-.48.15-.03.55.34.52.42-.11.3-.34.56-.64,1Z"/>
      <path class="cls-5" d="M268.34,487.69c-5.91,1.33-11.82,2.65-17.73,3.98-1.8,0-3.59,0-6.52,0,3.91-4.94,8.15-7.89,12.88-9.33,13.78-4.2,26.4-10.84,38.65-18.11,14.01-8.31,28.49-15.04,44.78-17.29,1.81-.25,3.58-1.2,5.35-1.17,1.33.02,3.46.83,3.77,1.77.37,1.11-.59,2.92-1.44,4.08-.63.85-1.97,1.32-3.09,1.66-19.3,5.85-36.98,15.18-54.52,24.93-6.98,3.88-14.73,6.36-22.13,9.47Z"/>
      <path class="cls-2" d="M143.92,298.82c3.45-2.03,6.91-1.93,10.39-.05-3.46.02-6.92.03-10.39.05Z"/>
      <path class="cls-2" d="M132.85,300.08c.76-.09,1.52-.19,2.29-.28-.76.09-1.52.19-2.29.28Z"/>
      <path class="cls-5" d="M289.41,416.76c-6.21,4.18-12.81,7.89-18.53,12.66-7.95,6.63-16.57,11.79-26.33,15.08-13.77,4.63-27.51,3.46-40.84-1.43-18.37-6.73-26.02-26.74-17.72-44.25,4.71-9.94,13-14.02,23.19-15.31,10.16-1.28,19.81,1.07,28.93,5.26,11.69,5.37,23.16,11.23,34.73,16.88.36,2.97-1.8,3.63-3.9,3.68-4.57.12-9.15-.11-13.73-.2-.83-.32-1.74-.5-2.47-.97-5.81-3.67-11.49-7.55-17.39-11.05-3.53-2.09-7.41-3.49-11.36-2.33.51,4.56,1.89,9.07,1.25,13.27-.83,5.48-4.42,7.28-10.09,6.57.44-2.17,1.05-4.3,1.29-6.47.47-4.21-1.16-8.25-4.8-9.64-2.34-.9-6.27.43-8.68,2-7.38,4.83-8.43,16.77-2.58,24.08,5.7,7.13,13.69,9.34,22.2,9.62,16.18.54,31.2-3.33,44.42-13.09,1.39-.15,2.83-.1,4.16-.47,5.34-1.49,10.63-3.16,15.97-4.63.64-.18,1.51.48,2.27.75Z"/>
      <path class="cls-5" d="M459.67,421.75c-.95.39-1.91.77-2.86,1.16-3.39,1.12-6.75,2.32-10.17,3.34-7.58,2.27-12.01-2.72-17.95-7.73,29.3-2.73,50.61-17.19,67.9-38.51,1.17-1.25,2.34-2.51,3.51-3.76,1.16-1.25,2.33-2.5,4.22-3.49-.31,1.58-.4,3.23-.95,4.72-5.08,13.7-13.36,25.07-25.29,33.56-4.82,3.43-10.12,6.19-15.21,9.25-1.06.49-2.13.97-3.19,1.46Z"/>
      <path class="cls-4" d="M289.41,416.76c-.76-.27-1.63-.92-2.27-.75-5.34,1.47-10.63,3.13-15.97,4.63-1.33.37-2.77.32-4.16.47,2.73-4.26,2.5-4.92-2.11-7.11-3.26-1.55-6.45-3.24-9.68-4.87,4.58.09,9.16.32,13.73.2,2.1-.05,4.25-.71,3.9-3.68,5.2,1.25,10.39,2.57,15.62,3.72,2.48.55,5.03.76,7.56,1.13.17.55.33,1.1.5,1.65-2.37,1.54-4.74,3.07-7.11,4.61Z"/>
      <path class="cls-5" d="M363.22,197.74c6.05,1.09,10.9,3.02,14.02,7.63,10.39,15.37,25.36,25.31,40.81,34.64,13.58,8.2,27.59,15.7,40.89,24.32,10.81,7.01,18.75,16.77,21.63,29.8.7,3.18.69,6.52,1.01,9.79-.46.1-.92.19-1.38.29-2.71-3.63-5.78-7.05-8.06-10.93-5.99-10.18-14.8-17.66-24-24.47-7.05-5.21-15.1-9.17-23-13.11-18.42-9.19-35.31-20.44-48.94-35.98-4.76-5.42-8.43-11.81-12.45-17.85-.57-.85-.31-2.24-.52-4.13Z"/>
      <path class="cls-5" d="M516.06,278.49c-1.22-1.63-2.44-3.26-3.67-4.89,1.01-2.48,2.03-4.97,3.04-7.45,2.47-1.67,4.65-3.99,8.18-2.19,4.13,2.1,6.31,5.69,5.14,9.11-1.77,5.18-5.69,7.42-11.04,6.32-.55-.3-1.1-.6-1.65-.89Z"/>
      <path class="cls-2" d="M261.74,508.81c1.3.21,2.6.41,3.91.61-1.3-.21-2.6-.41-3.91-.61Z"/>
      <path class="cls-2" d="M267.27,509.73c.51.06,1.01.13,1.52.19-.51-.06-1.01-.13-1.52-.19Z"/>
      <path class="cls-4" d="M449.38,105.11c-2.47-.98-5.14-1.54-7.12-3.01-1.23-.91-2.43-3.98-1.87-4.72,1.15-1.5,3.56-2.94,5.34-2.82,2.13.15,4.52,1.58,6.11,3.15,1.28,1.27,1.86,3.55,2.03,5.44.04.47-2.68,1.19-4.49,1.96Z"/>
      <path class="cls-5" d="M246.85,96.13c.4,1.8,1.43,3.77,1.1,5.47-1.71,8.87-11.15,14.29-19.75,11.48-1.43-.47-2.84-1.46-3.86-2.58-1.6-1.75-.55-5.06,1.5-4.75,8.3,1.23,13.94-2.65,18.58-8.86.15-.2.41-.34.64-.44.24-.1.51-.1,1.79-.33Z"/>
      <path class="cls-2" d="M104.03,129.65c8.86-.36,17.61-.32,24.31,8.35-9.71.24-16.96-4.19-24.31-8.35Z"/>
      <path class="cls-2" d="M156.28,129.81c-7.96,6.06-15.91,8.39-24.83,6.92,6.73-6.6,15.16-7.16,24.83-6.92Z"/>
      <path class="cls-1" d="M127.01,139.68c1.34,9.37-1.61,15.47-10.8,21.76,1.73-8.46,6.37-15.03,10.82-21.68l-.02-.08Z"/>
      <path class="cls-1" d="M129.15,113.53c4,7.79,2.93,14.97-.12,21.55-2.81-6.66-2.3-13.89.12-21.55Z"/>
      <path class="cls-2" d="M131.24,141.45c7.9,5.21,11.87,11.42,12.58,19.15-4.43-3.11-8.26-8.87-12.58-19.15Z"/>
      <path class="cls-1" d="M127.03,139.76c.23,0,.45,0,.68-.01-.08.12-.16.25-.24.37-.15-.14-.3-.28-.46-.43,0,0,.02.07.02.07Z"/>
    </g>
  </g>
</svg>